<svg xmlns="http://www.w3.org/2000/svg" width="141" height="141" fill="none" viewBox="0 0 141 141"><path fill="#000" d="M132.09 70.4478C132.09 58.2562 128.475 46.3384 121.701 36.2014C114.928 26.0645 105.301 18.1637 94.0373 13.4981C82.7737 8.8326 70.3795 7.61189 58.4222 9.99035C46.4648 12.3688 35.4813 18.2396 26.8605 26.8604C18.2397 35.4812 12.3689 46.4647 9.99044 58.4221C7.61198 70.3795 8.83269 82.7736 13.4982 94.0372C18.1637 105.301 26.0646 114.928 36.2015 121.701C46.3385 128.475 58.2563 132.09 70.4479 132.09C86.7964 132.09 102.475 125.595 114.035 114.035C125.595 102.475 132.09 86.7963 132.09 70.4478ZM105.672 74.8508L52.1755 74.8508L76.7442 99.5402L70.4479 105.672L35.224 70.4478L70.4479 35.2239L76.7442 41.5078L52.1755 66.0448L105.672 66.0448V74.8508Z"/></svg>