<svg xmlns="http://www.w3.org/2000/svg" width="1213" height="938" fill="none" viewBox="0 0 1213 938"><path fill="#549753" stroke="#000" d="M36.2509 1.45096C-81.0378 7.56566 -472 33.5531 -472 33.5531V937L-61.4897 924.006C-61.4897 924.006 881.572 947.668 955.012 752.795C969.745 713.702 911.714 685.245 955.012 651.138C1002.19 613.971 1099.13 632.294 1168.41 603.749C1418.13 500.863 512.79 497.374 526.583 341.581C531.794 282.721 665.049 264.383 634.097 199.414C603.146 134.446 182.862 146.675 90.0082 113.044C-2.84531 79.4134 63.9441 53.4259 63.9441 53.4259C63.9441 53.4259 153.54 -4.66374 36.2509 1.45096Z"/></svg>