<svg width="1315" height="325" viewBox="0 0 1315 325" fill="none" xmlns="http://www.w3.org/2000/svg">
<path d="M1301.57 119.847C1288.8 105.073 1268.94 97.7775 1250.14 95.5739C1250.76 93.137 1251.11 90.6157 1251.11 88.0176C1251.07 68.4532 1232.3 52.6339 1209.19 52.6823C1199.84 52.7019 1191.24 55.348 1184.29 59.751C1169 23.1547 1132.09 0.381719 1083.08 0.484323C1035.43 0.584096 991.845 18.677 979.886 57.4159C961.074 44.8774 938.187 49.2213 931.328 67.7999C932.476 48.068 906.585 19.7257 861.349 19.8204C838.03 19.8692 807.655 28.7373 798.712 55.2096C789.902 38.3217 774.281 34.586 755.783 36.0776C737.308 37.5916 722.914 55.9909 722.788 69.2067C704.308 60.0983 683.719 52.9473 662.302 52.9446C640.912 52.9269 623.169 58.2853 608.522 71.5315C592.737 85.7678 592.24 109.139 600.638 127.101C579.449 123.102 563.397 135.01 568.201 152.959C542.883 142.953 527.361 142.698 500.14 147.833C482.08 151.239 465.01 159.635 453.08 171.462C444.417 160.823 425.827 145.363 391.708 146.655C350.6 148.209 329.771 177.617 329.771 177.617C329.771 177.617 316.134 162.482 281.792 167.307C255.05 171.057 249.63 188.867 249.63 188.867C249.63 188.867 224.323 141.864 130.818 178.131C54.9178 207.604 14.2702 163.902 0.43185 209.188L0.455505 209.208C1.75876 209.636 43.9539 223.711 129.486 232.896C163.239 236.521 194.528 234.87 220.173 231.533C220.243 231.536 220.314 231.561 220.362 231.563C220.353 231.663 234.585 241.628 263.698 247.689C284.672 252.018 303.743 251.543 324.535 241.297C332.556 258.152 350.138 271.626 373.996 272.796C386.829 273.422 400.416 268.587 410.157 264.006C418.395 260.158 423.883 256.498 423.883 256.498C445.867 265.169 467.48 281.582 491.228 280.57C492.205 280.535 493.188 280.463 494.192 280.374C524.394 277.215 553.889 259.839 561.164 234.808C592.31 253.82 645.958 238.494 656.47 226.859C652.752 240.743 660.263 255.638 672.69 265.211C685.119 274.748 701.753 279.591 718.389 281.595C757.875 286.308 799.598 275.536 829.26 252.991C844.739 263.498 866.067 267.567 885.352 263.616C891.433 262.38 903.475 258.939 903.475 258.939C903.475 258.939 909.606 301.394 986.868 318.699C1066.54 336.543 1134.14 280.894 1130.16 255.509C1139.63 264.456 1169.83 263.718 1186.82 256.168C1206.11 247.623 1215.13 224.247 1209.42 208.733C1217.11 229.664 1285.74 222.503 1302.4 197.225C1309.56 186.37 1314.05 172.99 1314.6 159.559C1315.17 145.379 1311.32 131.166 1301.57 119.847Z" fill="white"/>
<path d="M1256.76 110.517C1213.31 103.384 1180.72 123.734 1173.84 151.958C1172.66 144.183 1160.31 140.736 1151.81 143.887C1143.31 147.058 1138.05 154.273 1133.58 161.152C1137.02 126.922 1093.01 95.8091 1053.81 104.793C1017.37 113.124 973.177 142.506 977.692 194.568C1007.13 174.609 1056.13 180.816 1077.37 207.185C1046.35 187.288 995.965 194.997 975.097 222.87C970.898 199.251 930.648 187.387 910.051 203.709C917.92 194.883 926.093 185.449 927.349 174.471C928.634 163.491 919.792 150.907 906.762 150.754C908.395 137.815 909.988 124.374 905.181 111.988C900.374 99.6032 887.315 88.5255 871.921 88.8178C846.093 89.2869 835.694 116.847 832.485 138.534C807.724 136.616 783.286 154.521 781.95 175.553C765.559 160.704 774.261 132.237 797.109 125.98C785.422 115.675 763.122 119.523 753.099 130.959C743.026 142.415 743.16 158.381 748.217 171.948C723.15 154.519 681.264 158.715 661.686 180.649C686.633 182.612 710.598 192.232 728.142 207.316C703.465 196.252 671.262 198.445 648.952 212.748C649.527 194.42 618.623 182.267 602.436 194.411C597.568 178.395 574.14 168.602 556.157 175.038C538.124 181.488 530.103 202.557 540.309 216.676C519.077 200.584 486.857 195.783 460.397 204.706C480.135 204.199 499.779 213.665 509.334 228.301C485.544 217.503 457.213 214.625 430.896 219.403C419.136 210.846 401.913 202.505 377.952 200.085C323.386 194.553 298.425 225.53 298.425 225.53C298.425 225.53 289.305 210.818 308.643 199.937C308.643 199.937 263.743 194.192 233.417 217.046C233.417 217.046 207.914 194.814 148.658 215.856C125.557 224.059 0.43185 209.187 0.43185 209.187L0.45551 209.21C1.75876 209.637 43.9539 223.712 129.486 232.895C163.239 236.525 194.528 234.872 220.173 231.532C220.243 231.535 220.314 231.559 220.362 231.562C220.353 231.662 234.585 241.627 263.698 247.687C284.672 252.017 303.743 251.544 324.535 241.298C332.556 258.153 350.138 271.627 373.996 272.795C386.829 273.423 400.416 268.586 410.157 264.007C418.395 260.159 423.883 256.499 423.883 256.499C445.867 265.17 467.48 281.583 491.228 280.569C492.205 280.536 493.188 280.462 494.192 280.372C524.394 277.216 553.889 259.84 561.164 234.807C592.31 253.821 645.958 238.495 656.47 226.858C652.752 240.741 660.263 255.636 672.69 265.213C685.119 274.746 701.753 279.59 718.389 281.596C757.875 286.309 799.598 275.534 829.26 252.99C844.739 263.5 866.067 267.568 885.352 263.615C891.436 262.382 903.475 258.941 903.475 258.941C903.475 258.941 909.609 301.395 986.868 318.697C1066.54 336.542 1134.14 280.893 1130.16 255.51C1139.63 264.458 1169.83 263.717 1186.82 256.167C1206.11 247.622 1215.13 224.245 1209.42 208.731C1217.11 229.662 1285.74 222.505 1302.41 197.226C1309.56 186.371 1314.05 172.989 1314.6 159.557C1306.15 132.176 1285.56 115.245 1256.76 110.517Z" fill="#CCE1F4"/>
</svg>
