<svg width="914" height="938" viewBox="0 0 914 938" fill="none" xmlns="http://www.w3.org/2000/svg">
<path d="M276.252 1.45096C212.733 7.56566 1 33.5531 1 33.5531V937L223.319 924.006C223.319 924.006 734.051 947.668 773.824 752.795C781.802 713.702 750.375 685.245 773.824 651.138C799.376 613.971 851.874 632.294 889.394 603.749C1024.63 500.863 534.331 497.374 541.8 341.581C544.622 282.721 616.789 264.383 600.027 199.414C583.264 134.446 355.652 146.675 305.366 113.044C255.079 79.4134 291.25 53.4259 291.25 53.4259C291.25 53.4259 339.772 -4.66374 276.252 1.45096Z" fill="#549753" stroke="black"/>
</svg>
