<svg xmlns="http://www.w3.org/2000/svg" width="487" height="235" fill="none" viewBox="0 0 487 235"><path fill="#fff" d="M452.883 131.56C454.471 120.256 453.078 104.825 446.475 92.372C446.014 91.5317 445.555 90.689 445.096 89.8487C435.827 73.0939 415.115 62.6045 392.268 68.7998C387.145 56.1057 375.361 47.2166 361.63 47.2166C356.479 47.2166 351.618 48.5033 347.261 50.7356C329.378 26.9477 291.665 -10.2717 232.809 2.65565C174.17 15.5353 146.992 79.4873 146.992 79.4873C126.629 59.2485 84.3583 67.9545 63.7497 88.9583C42.0408 111.086 42.4365 127.908 42.4365 127.908C28.07 118.034 4.93991 127.906 1.00645 142.642C-2.12158 154.32 2.15136 166.317 12.2987 172.116C12.8934 172.424 13.542 172.725 14.1367 173.034C33.3755 183.194 45.2227 177.563 45.2227 177.563C68.1585 230.534 111.485 216.769 131.298 205.977C137.502 202.595 150.267 196.746 150.267 196.746C150.267 196.746 185.837 232.932 235.234 234.936C264.728 236.16 315.084 219.729 326.863 190.707C379.782 223.321 473.223 198.339 485.386 165.843C490.223 152.935 485.515 121.999 452.883 131.56Z"/><path fill="#CCE1F4" d="M473.09 154.086C460.926 186.583 367.486 211.565 314.567 178.95C302.787 207.973 252.432 224.404 222.938 223.178C173.54 221.174 137.971 184.988 137.971 184.988C137.971 184.988 125.206 190.839 119.001 194.218C99.1887 205.013 55.8598 218.778 32.924 165.807C32.924 165.807 21.0768 171.438 1.84032 161.275C1.24562 160.969 0.597043 160.665 0 160.357C2.1915 159.938 4.35258 159.464 6.42233 158.912C34.769 151.736 72.7034 122.789 97.8564 149.893C97.6621 128.763 77.7818 114.263 59.0862 116.719C67.4635 103.987 84.1947 98.4968 97.9782 103.802C112.064 109.184 121.776 125.322 120.626 141.272C136.898 132.892 150.733 130.885 168.415 134.249C186.097 137.642 197.684 149.484 204.959 167.104C199.578 135.927 184.222 118.186 154.704 120.02C153.733 102.206 155.568 90.0968 165.596 75.825C175.596 61.5282 193.402 52.7745 209.468 57.4724C225.56 62.2004 237.101 82.4241 230.929 98.9984C233.512 94.7671 242.945 92.2714 248.489 96.3121C252.837 99.48 253.987 108.397 252.954 112.074C257.382 98.2886 270.837 88.5015 284.436 89.1863C298.06 89.866 310.61 100.957 313.857 115.114C316.074 88.6972 292.68 63.3266 268.025 65.3607C302.246 45.0241 348.308 58.3653 353.463 100.115C366.69 53.5019 425.158 62.9002 434.176 80.6157C440.781 93.0665 442.591 110.476 440.587 119.804C473.216 110.243 477.927 141.179 473.09 154.086Z"/></svg>