<svg width="1432" height="444" viewBox="0 0 1432 444" fill="none" xmlns="http://www.w3.org/2000/svg">
<path d="M1414.31 163.95C1397.53 143.737 1371.41 133.755 1346.7 130.739C1347.52 127.405 1347.97 123.956 1347.97 120.402C1347.91 93.6376 1323.24 71.9945 1292.86 72.0581C1280.56 72.0838 1269.26 75.7028 1260.11 81.7254C1240.01 31.6596 1191.47 0.501912 1127.04 0.636816C1064.39 0.767997 1007.08 25.5143 991.362 78.5081C966.627 61.3533 936.536 67.2932 927.519 92.7081C929.027 65.7148 894.982 26.9395 835.505 27.064C804.846 27.1282 764.909 39.2565 753.154 75.4698C741.569 52.366 721.03 47.2538 696.708 49.2922C672.417 51.3614 653.495 76.5302 653.331 94.6095C629.033 82.1471 601.96 72.3621 573.802 72.3561C545.678 72.3294 522.35 79.6577 503.094 97.777C482.342 117.251 481.69 149.223 492.734 173.795C464.875 168.322 443.771 184.612 450.089 209.167C416.8 195.475 396.391 195.124 360.602 202.146C336.856 206.804 314.414 218.287 298.73 234.466C287.338 219.91 262.894 198.759 218.035 200.522C163.986 202.644 136.603 242.871 136.603 242.871C136.603 242.871 118.671 222.165 73.5196 228.763C38.3594 233.889 31.2349 258.253 31.2349 258.253C31.2349 258.253 -2.04389 193.95 -124.98 243.553C-224.771 283.864 -278.219 224.074 -296.409 286.025L-296.378 286.052C-294.664 286.637 -239.184 305.896 -126.726 318.472C-82.346 323.435 -41.2079 321.18 -7.49088 316.618C-7.39768 316.621 -7.30444 316.655 -7.24231 316.658C-7.25367 316.795 11.4592 330.429 49.7383 338.723C77.3151 344.648 102.389 344 129.726 329.986C140.274 353.044 163.392 371.479 194.761 373.082C211.634 373.94 229.497 367.328 242.305 361.061C253.135 355.798 260.351 350.792 260.351 350.792C289.256 362.656 317.675 385.113 348.898 383.73C350.183 383.683 351.476 383.584 352.796 383.462C392.505 379.144 431.284 355.377 440.845 321.135C481.798 347.147 552.333 326.187 566.154 310.272C561.266 329.264 571.144 349.642 587.483 362.74C603.827 375.787 625.697 382.415 647.571 385.157C699.487 391.61 754.344 376.878 793.341 346.04C813.694 360.416 841.736 365.984 867.092 360.581C875.087 358.891 890.919 354.186 890.919 354.186C890.919 354.186 898.985 412.264 1000.57 435.946C1105.33 460.366 1194.2 384.245 1188.96 349.518C1201.42 361.759 1241.13 360.752 1263.46 350.426C1288.83 338.739 1300.68 306.76 1293.17 285.536C1303.29 314.171 1393.51 304.383 1415.43 269.804C1424.83 254.956 1430.73 236.652 1431.45 218.277C1432.21 198.88 1427.15 179.436 1414.31 163.95Z" fill="white"/>
<path d="M1355.41 151.182C1298.27 141.419 1255.42 169.255 1246.38 207.864C1244.84 197.228 1228.6 192.511 1217.42 196.82C1206.25 201.157 1199.33 211.027 1193.46 220.436C1197.97 173.61 1140.1 131.043 1088.56 143.329C1040.66 154.721 982.551 194.911 988.493 266.133C1027.2 238.833 1091.62 247.328 1119.55 283.404C1078.76 256.181 1012.52 266.722 985.084 304.85C979.561 272.538 926.638 256.305 899.559 278.631C909.905 266.558 920.649 253.652 922.299 238.635C923.988 223.614 912.361 206.398 895.23 206.187C897.375 188.487 899.468 170.099 893.146 153.155C886.824 136.212 869.654 121.056 849.413 121.454C815.455 122.093 801.785 159.795 797.568 189.462C765.012 186.835 732.882 211.326 731.129 240.099C709.576 219.784 721.015 180.841 751.054 172.284C735.687 158.185 706.367 163.446 693.19 179.09C679.948 194.761 680.125 216.602 686.777 235.163C653.816 211.318 598.745 217.053 573.007 247.056C605.807 249.745 637.317 262.907 660.385 283.544C627.939 268.407 585.599 271.403 556.266 290.967C557.021 265.894 516.387 249.265 495.105 265.876C488.703 243.966 457.9 230.566 434.256 239.369C410.546 248.19 400.002 277.012 413.423 296.328C385.506 274.312 343.142 267.741 308.354 279.944C334.305 279.253 360.134 292.205 372.698 312.228C341.418 297.454 304.169 293.513 269.567 300.047C254.104 288.339 231.459 276.927 199.954 273.613C128.21 266.039 95.3955 308.413 95.3955 308.413C95.3955 308.413 83.4019 288.286 108.827 273.404C108.827 273.404 49.7909 265.54 9.92108 296.8C9.92108 296.8 -23.6129 266.384 -101.521 295.163C-131.892 306.381 -296.409 286.023 -296.409 286.023L-296.378 286.054C-294.664 286.639 -239.184 305.898 -126.726 318.47C-82.346 323.44 -41.2079 321.181 -7.49088 316.616C-7.39768 316.619 -7.30444 316.653 -7.24231 316.656C-7.25367 316.793 11.4592 330.427 49.7383 338.721C77.3151 344.646 102.389 344.002 129.726 329.988C140.274 353.046 163.392 371.48 194.761 373.08C211.634 373.941 229.497 367.326 242.305 361.063C253.135 355.799 260.351 350.793 260.351 350.793C289.256 362.658 317.675 385.114 348.898 383.728C350.183 383.684 351.476 383.583 352.796 383.46C392.505 379.145 431.284 355.379 440.845 321.133C481.798 347.148 552.333 326.189 566.154 310.27C561.266 329.262 571.144 349.64 587.483 362.741C603.827 375.785 625.697 382.413 647.571 385.159C699.487 391.611 754.344 376.876 793.341 346.038C813.694 360.417 841.736 365.986 867.092 360.579C875.091 358.893 890.919 354.187 890.919 354.187C890.919 354.187 898.989 412.266 1000.57 435.944C1105.33 460.364 1194.2 384.243 1188.96 349.52C1201.42 361.76 1241.13 360.75 1263.46 350.424C1288.83 338.737 1300.68 306.758 1293.17 285.534C1303.29 314.169 1393.51 304.385 1415.43 269.806C1424.83 254.957 1430.74 236.65 1431.45 218.276C1420.35 180.817 1393.26 157.653 1355.41 151.182Z" fill="#CCE1F4"/>
</svg>
