<svg xmlns="http://www.w3.org/2000/svg" viewBox="0 0 500 500"><g id="freepik--Background--inject-397"><g id="freepik--background--inject-397"><path d="M429.6,198.46c-11.57,11-14.48,21-16.48,36.94-1.89,15.09,4.55,34.33,11.59,43.41s12.24,6.87,13.8-1.72c.78-4.24-3.9-19.25-.4-33.06,2.36-9.29,8.34-20.63,11-28.87,3-9.33.09-17.61-4.29-20.36C442.09,193.11,434.33,194,429.6,198.46Z" style="fill:#455a64"/><path d="M121.75,150.5c-8.2,8.73-13.93,17.75-20.33,29.48-4.09,7.5-6.73,17.35-12.86,24-8.75,9.48-21.4-.21-23.94-14.61-5.27-29.79,6.84-49.74,18.83-62.59,14.15-15.17,42.11-24.08,67.25-25.23,28-1.27,30,10.43,12.13,19.08C147.77,127.91,132.19,139.38,121.75,150.5Z" style="fill:#455a64"/><path d="M150.14,422.9c-13.89-6.88-24-13.74-31.87-25.82-6.91-10.55-10.25-14.93-16.12-14-12.09,1.85-18.43,25.86-10.58,43.19,10.07,22.23,38,31.53,67.27,31.8,33,.3,44.83-9.37,46-13.33,1.8-6-3.91-9.86-15.81-11.44C176.88,431.65,157.94,426.77,150.14,422.9Z" style="fill:#455a64"/><path d="M415.88,197.37C435.55,152,459.44,83.27,379.82,75.66l-1.89-.15c-92.38-7.37-171.48,29.7-213.65,60.3-42.46,30.8-62.37,62.77-73.3,121.27S106.34,390,168.1,414.23s151.79,18,198.62-23.75c45-40.13,53.83-93.34,38-132.69C401.28,243.54,401.47,230.66,415.88,197.37Z" style="fill:#455a64"/></g></g><g id="freepik--Character--inject-397"><g id="freepik--Face--inject-397"><path id="freepik--Skin--inject-397" d="M379.82,75.66c5.11,20.37,14.06,73.59-5.14,88.73,0,0,6.79,5.77,6.79,23.64,0,0,2.76,4.81,2.1,18.63-.5,10.37-.34,17.27,9.53,30.45,29.52,39.41,27.1,105.65-26.38,153.37-46.83,41.78-136.85,48-198.62,23.75S80,315.58,91,257.08s30.84-90.47,73.3-121.27S286.63,67.63,379.82,75.66Z" style="fill:#ffa8a7"/><path id="freepik--Shadow--inject-397" d="M393.1,237.11c-9.87-13.18-10-20.08-9.53-30.45.66-13.82-2.1-18.63-2.1-18.63,0-17.87-6.79-23.64-6.79-23.64,10-7.92,12.38-26.24,11.6-44.84-18.39-3-46.7,13.49-63.81,58-19.66,51.09-9.83,90.83,4.92,111.75,10.26,15.29,22.81,23.47,35.13,35.44s4.2,23.12.89,26.84-16.36,16.15-17,22.88c-3.59,10.81,1.12,21,9.76,24.36a114.4,114.4,0,0,0,10.51-8.29C420.2,342.76,422.62,276.52,393.1,237.11Z" style="opacity:.05"/><path id="freepik--shadow--inject-397" d="M242.1,194.88c12.7,6,27.8,28.92,32.71,63,4.47,30.91-1.5,55.9-11.33,55.9S234,240.6,199.56,251.63s-59,53.6-68.83,42.25S112,249,138.56,224.6,210.9,183.86,242.1,194.88Z" style="opacity:.05"/><g id="freepik--Freckles--inject-397"><circle cx="140.57" cy="359.51" r="2.96" style="fill:#f28f8f"/><path d="M170.93,376.5a3,3,0,1,1-3.73-1.92A3,3,0,0,1,170.93,376.5Z" style="fill:#f28f8f"/><path d="M199.42,358.14a3,3,0,1,1-3.72-1.92A3,3,0,0,1,199.42,358.14Z" style="fill:#f28f8f"/><path d="M381,261a3,3,0,1,1-3.73-1.92A3,3,0,0,1,381,261Z" style="fill:#f28f8f"/><path d="M397,274.76a3,3,0,1,1-3.72-1.92A3,3,0,0,1,397,274.76Z" style="fill:#f28f8f"/><path d="M354,274.59a3,3,0,1,1-3.72-1.92A3,3,0,0,1,354,274.59Z" style="fill:#f28f8f"/><path d="M310.55,287.3a3,3,0,1,1-3.73-1.92A3,3,0,0,1,310.55,287.3Z" style="fill:#f28f8f"/><path d="M191.14,402.21a3,3,0,1,1-3.73-1.93A3,3,0,0,1,191.14,402.21Z" style="fill:#f28f8f"/><path d="M132.69,336a3,3,0,1,1-3.73-1.92A3,3,0,0,1,132.69,336Z" style="fill:#f28f8f"/><path d="M130.52,370.72a3,3,0,1,1-3.73-1.93A3,3,0,0,1,130.52,370.72Z" style="fill:#f28f8f"/><path d="M234,343.77a2.1,2.1,0,1,1-2.64-1.36A2.1,2.1,0,0,1,234,343.77Z" style="fill:#f28f8f"/><path d="M393.31,245a2.11,2.11,0,1,1-2.65-1.36A2.11,2.11,0,0,1,393.31,245Z" style="fill:#f28f8f"/><path d="M332.3,272.21a2.1,2.1,0,1,1-2.64-1.36A2.1,2.1,0,0,1,332.3,272.21Z" style="fill:#f28f8f"/><path d="M356.17,294.81a2.1,2.1,0,0,1-4,1.28,2.1,2.1,0,1,1,4-1.28Z" style="fill:#f28f8f"/><path d="M405.24,290.4A2.1,2.1,0,1,1,402.6,289,2.09,2.09,0,0,1,405.24,290.4Z" style="fill:#f28f8f"/><path d="M262.53,373.85a2.1,2.1,0,1,1-2.64-1.36A2.09,2.09,0,0,1,262.53,373.85Z" style="fill:#f28f8f"/><path d="M302.81,319.43a2.1,2.1,0,1,1-2.65-1.37A2.1,2.1,0,0,1,302.81,319.43Z" style="fill:#f28f8f"/><path d="M317.1,304.59a2.1,2.1,0,1,1-2.64-1.36A2.1,2.1,0,0,1,317.1,304.59Z" style="fill:#f28f8f"/><path d="M290.06,276.21a2.1,2.1,0,1,1-2.64-1.37A2.1,2.1,0,0,1,290.06,276.21Z" style="fill:#f28f8f"/><path d="M314.64,268a2.09,2.09,0,0,1-1.36,2.64,2.1,2.1,0,1,1,1.36-2.64Z" style="fill:#f28f8f"/><path d="M295.89,247.82a2.1,2.1,0,1,1-2.64-1.36A2.1,2.1,0,0,1,295.89,247.82Z" style="fill:#f28f8f"/><path d="M112.48,341.88a2.1,2.1,0,1,1-4,1.28,2.1,2.1,0,0,1,4-1.28Z" style="fill:#f28f8f"/><path d="M223.23,384.24a2.11,2.11,0,1,1-2.64-1.36A2.1,2.1,0,0,1,223.23,384.24Z" style="fill:#f28f8f"/><path d="M380.21,290.74a2.1,2.1,0,1,1-2.65-1.36A2.12,2.12,0,0,1,380.21,290.74Z" style="fill:#f28f8f"/></g><g id="freepik--Eye--inject-397"><path d="M377.46,168.27a14,14,0,0,0-2.78-3.88c10.16-8,12.44-26.69,11.57-45.52-.54,0-1.1,0-1.69.08-14.06,1.13-24.94,14.4-24.94,14.4,18.29-9,22.62,3.08,16.93,12.93-4.91,8.51-24.5,13.35-33.64,22.71,0,0,18.43-11.63,30.95-3C375.12,166.88,376.31,167.62,377.46,168.27Z" style="fill:#f28f8f"/><path d="M381,184.84l.4-.48c-.43-7.73-2.23-12.78-3.84-15.88-4.22-3.26-9.68-5.94-15.77-5.17-13.91,1.76-34.29,11.6-39.33,42.11-2.85,17.31-.45,26-.82,45.41Z" style="fill:#c389cc"/><path d="M381.41,184.36c-.43-7.73-2.23-12.78-3.84-15.88-3.68-2.84-8.31-5.25-13.48-5.3-11.61,2.22-21.51,10-21.51,10,11.24-6.66,21.88-4.74,19.94-2.41s-23.81,1-32.18,35.42c0,0,16.35-28.77,34.07-26.77a28.69,28.69,0,0,1,15.51,6.6l1.09-1.22Z" style="opacity:.2"/><path d="M381,191.69c.57,6.73,1.65,14.95-2.29,26.83S360.74,247.09,346.06,251c0,0-5.06.91-8.84,1.56s-4.92,1.21-6.74,2.76-6.36,3.86-8,1.36,1.34-6.72,2-9.8,1-12.9,3.5-23.58S334.36,195,346.06,186s25.31-9,30.49-3.18C379.69,186.34,381,191.69,381,191.69Z" style="fill:#f0f0f0"/><path d="M378.69,218.52c3.94-11.88,2.86-20.1,2.29-26.83,0,0-1.29-5.35-4.43-8.85-5.18-5.79-18.79-5.84-30.49,3.18a27.79,27.79,0,0,0-2.57,2.27l2.33,4.12,7.46,2.47c9.24-6,19.52-5.35,22.82,0,4.17,6.7,3.16,22.23,1,27.54A35.75,35.75,0,0,0,378.69,218.52Z" style="fill:#e0e0e0"/><path d="M329.24,229.09c-1.23,5.58-1.06,14.15,5.12,17.72,6.39,3.69,13.47,3.91,21.05.14a21.31,21.31,0,0,1-8.58,3.86c-5.66,1.34-11.08,1.06-14.53,2.91s-5.56,4.52-8.78,3.26-1.11-5.52,0-8.33S326.63,234.66,329.24,229.09Z" style="fill:#e0e0e0"/><path d="M324.39,242.15c.65,5,1.69,10.71,9.05,11,0,0-5.07,4-8,4.55s-5-.83-3-5.86A27.47,27.47,0,0,0,324.39,242.15Z" style="fill:#f28f8f"/><path d="M368.11,235.88c8.44-10,12.25-21.48,13.36-38.84C382.17,208.08,381.59,223.74,368.11,235.88Z" style="fill:#263238"/><path d="M380.16,175.84c-3.23-9.33-19.75-15.08-38.45-.92-12,9.09-18.25,26.67-22.58,49.93,1.67-26.85,6-41.4,22.31-54.71s32.22-7,32.22-7a32.21,32.21,0,0,0,11-17.86s-1,11.86-7.9,19.94A12.4,12.4,0,0,1,380.16,175.84Z" style="fill:#263238"/><path d="M366,218.24c-1.13,13.68-12.16,23.94-24.63,22.91A21.68,21.68,0,0,1,326,232.57c2.9-17.27,9.18-31.14,19.47-41C358,192.62,367.14,204.55,366,218.24Z" style="fill:#c389cc"/><path d="M353.28,194.88c-6,5.58-22,23.41-24.64,39.39l-1.25-4s.36-8.62,4.91-20.29a43.52,43.52,0,0,1,12.34-17.62A18.62,18.62,0,0,1,353.28,194.88Z" style="opacity:.2"/><path d="M346.36,194.12a19.23,19.23,0,0,1,12.57,7.52A23.56,23.56,0,0,1,363.6,218c-1,11.64-10,20.76-20.49,20.76q-.76,0-1.53-.06a19,19,0,0,1-13-6.84c2.86-16.15,8.83-28.85,17.77-37.78m-.88-2.53c-10.29,9.84-16.57,23.71-19.47,41a21.68,21.68,0,0,0,15.37,8.58c.58,0,1.16.07,1.73.07,11.74,0,21.82-9.93,22.9-23,1.13-13.69-8.06-25.62-20.53-26.65Z" style="fill:#263238"/><ellipse cx="343.43" cy="216.37" rx="12.58" ry="11.46" transform="translate(99.46 540.77) rotate(-85.27)" style="fill:#263238"/><path d="M341.36,214.74a4.15,4.15,0,1,1-3.79-4.58A4.21,4.21,0,0,1,341.36,214.74Z" style="fill:#fafafa"/><path d="M328,236.68c-1.27-.93-1.18-3.26.2-5.2s3.53-2.75,4.8-1.82,1.18,3.27-.2,5.21S329.25,237.62,328,236.68Z" style="fill:#fafafa"/><path d="M373.86,185.3c4.15,0,9.27,2.8,14.17,5a7.4,7.4,0,0,0,7.22-.64c-1.1,2.34-4.91,3.19-7.64,2.53-3.51-.85-4.47-1.32-6.63-.5C381,191.69,380.19,187.48,373.86,185.3Z" style="fill:#263238"/><path d="M380,181.47c-3.24-4.38-13.23-12.48-28.79-3.5-18,10.4-23.79,35.24-26.12,50.28-1.3,8.36-1.21,13.72-1.67,17.07a21.36,21.36,0,0,1-1.72,5.51c-1.66,4.69-1.08,7.58,2.84,8s6.71-4.94,12.09-5.59c9.09-1.11,14-1.81,20.94-7.77-4.71,3.37-11.41,5.86-20.3,6.08-5.6.14-8,2.68-9.83,4.14-3.39,2.67-5.79,0-3.83-4.11a22.59,22.59,0,0,0,2-5.92c.67-3.37,1.49-8.12,2.84-13.25,2.2-8.39,9.43-35.34,24.39-44s25.9-3.06,28.72-.38A9.32,9.32,0,0,0,380,181.47Z" style="fill:#263238"/><path d="M354.34,187.49c10.11-4.31,16.5-4.1,27.13.54,4.14,1.81,12.18.83,16.39-5.71-6.56,4.21-10.33,3.78-21.31-.75C369.55,178.68,359,182.65,354.34,187.49Z" style="fill:#263238"/><path d="M325.87,243.25c-.2,3.83,1.34,7.5,3,8.62-2.42-.53-3.84-2.19-4.37-5S325.87,243.25,325.87,243.25Z" style="fill:#263238"/><path d="M382.42,214.4c.17,6.57-3.18,19-14.31,27.59C381,236,384.48,225.24,382.42,214.4Z" style="fill:#f28f8f"/><path d="M386.41,124c-8.8-4.46-25.25,9.09-37,20.93-9.9,10-11.09,5.32-11-1.46s5.12-12.4,15.87-20.35c16.48-12.19,27.34-9,31.77-6.87A33.49,33.49,0,0,1,386.41,124Z" style="fill:#263238"/></g><g id="freepik--Nose--inject-397"><path d="M291.5,340.58c1.18,2.78,1.36,9-1.56,12.66s-6.36,10.48-4,17.28,5.15,8.51,5.15,8.51-11.46-2.51-11.49-14.19c0-9.26,6.24-12.55,8.95-15.92A13.45,13.45,0,0,0,291.5,340.58Z" style="fill:#f28f8f"/><path d="M346.69,373.36c-3.44,5.13-10.32,6.83-20.13,4s-27.38,14.8-39.75-4.23c0-9.52,9.65-13.25,29.42-13.31s23.85-20.57,37.26-26.24,18.23,8.47,13.23,14.19C359.27,356.33,350.13,365.48,346.69,373.36Z" style="fill:#f28f8f"/><path d="M327.39,289.25c7.92,14.94,19.66,24.5,30.68,34.27,9.5,8.43,9.93,19.23,2.79,28.08s-12.77,14.47-14.41,22.81c5.68-9.74,13.31-15.17,20.27-23.26s8.28-20.79-2.27-29.43C354.17,313.3,340.38,305.23,327.39,289.25Z" style="fill:#263238"/><path d="M326.54,375c.34-2.94-4.08-7.21-12-5.75-9.5,1.75-14,7-8.54,7.94s13.21-1.43,16.43-4.14C322.44,373,325.29,373,326.54,375Z" style="fill:#263238"/><path d="M289.94,353.24c-5.86,8.29-3.76,23.26,6.27,27.7C286.83,380.41,276,366.37,289.94,353.24Z" style="fill:#263238"/><path d="M300.37,377.83a11.58,11.58,0,0,1,2.33,1.64c.69,1.66-3.62.47-4.13.25a15,15,0,0,1-7.27-5.64A10.68,10.68,0,0,1,290,366c.38-1.89,2.5-4.82,3.71-2.95a3.73,3.73,0,0,1,.15,2.24c-.24,2.71-.26,4.68,1.23,7.33A17.6,17.6,0,0,0,300.37,377.83Z" style="fill:#fafafa"/><path d="M355.82,330.2a13.48,13.48,0,0,1,3.45,8.61,10,10,0,0,1-3.71,8.1,5.26,5.26,0,0,1-3.89,1.2,3.7,3.7,0,0,1-3-2.86,5.54,5.54,0,0,1-.23-1.4c-.16-2.18-.26-4.33-.53-6.5a35.2,35.2,0,0,0-2.73-9.24c-2.59-5.14-5.45-8.81-9-13.33-2.21-2.78-3.36-4-3.31-4.81.07-1.19,1.31-1,1.95-.36q5.63,5.25,11.07,10.69C349.15,323.58,352.89,326.6,355.82,330.2Z" style="fill:#fafafa"/><path d="M291.05,357.83a2.27,2.27,0,0,0,.11.86,1.9,1.9,0,0,0,1.64,1.16,3.79,3.79,0,0,0,2-.48,5.53,5.53,0,0,0,3-3.35,2,2,0,0,0-.1-1.53c-.75-1.26-3.36-.89-4.51-.36A4.51,4.51,0,0,0,291.05,357.83Z" style="fill:#fafafa"/></g><g id="freepik--eye--inject-397"><path d="M170.07,212.53c-33,11.18-47.58,50.88-34.42,50.13,12.61-.73,26-20.67,62.46-19,0,0-70.09,34.84-62.46,75.8,0,0-11.9,4.16-19.67-11.35-12-24,.13-56.67,7.63-66.85C145.48,211.56,170.07,212.53,170.07,212.53Z" style="fill:#f28f8f"/><path d="M206.5,243.25c6.49-2.54,11.08-3.9,13.66-7.93a16.22,16.22,0,0,0-.93,5.9c.11,3.29,26.78,14.51,27.36,47.33C246.59,288.55,240.29,256.59,206.5,243.25Z" style="fill:#f28f8f"/><path d="M233.12,261.07s-.13-11.33-20.65-15.45S160.18,258.17,146.88,274s-18.22,33.63-11.23,45.41c0,0,25.93-44.45,60.91-58.45C220.74,251.3,233.12,261.07,233.12,261.07Z" style="fill:#c389cc"/><path d="M174.64,256.78c-14.41,8.71-21.37,19.06-17.33,21.54s18.91-19.7,47.17-24.71c0,0-21.38,11.12-38.4,28.92a360.88,360.88,0,0,0-30.43,36.89s-6.62-7.11,0-27.19S163.55,259.4,174.64,256.78Z" style="opacity:.2"/><path d="M141.91,314.65c2.61,6.47,10.11,16.54,29.68,19.85s43.91-3,63-20.41c0,0,6.61-8.52,8.61-9.6,3.6-1.94,6.57-1,9.14-3.05s2.32-5.07,0-6.68-4.09-3.19-6.26-8.64-6.93-24.34-20-27.74-31.66.9-49.1,14.15S141.91,314.65,141.91,314.65Z" style="fill:#f0f0f0"/><path d="M243.18,304.49c3.6-1.94,6.57-1,9.14-3.05s2.32-5.07,0-6.68-4.09-3.19-6.26-8.64-6.93-24.34-20-27.74-31.66.9-49.1,14.15-35,42.12-35,42.12c2.61,6.47,10.11,16.54,29.68,19.85a64.28,64.28,0,0,0,16.65.52c-9.63.68-21.62-3.64-23.69-9.57-2.17-6.25-3.31-18.24,10.43-31.57s43.23-27,55.33-17,9.94,26.92,4.26,37.24C234.57,314.09,241.18,305.57,243.18,304.49Z" style="fill:#e0e0e0"/><path d="M246.59,288.55c.52,3.8,1.18,10.45-6.23,17.53a19.39,19.39,0,0,1,6.09-2.72c3-.58,7.65-1.7,7.72-4.64s-1.93-3.8-4-6S246.59,288.55,246.59,288.55Z" style="fill:#f28f8f"/><path d="M148.26,323.89s8.55,7.33,24.58,9.73a78.22,78.22,0,0,0,29-1.15s-11.09,6-29.58,3.61C153.39,333.62,148.26,323.89,148.26,323.89Z" style="fill:#263238"/><path d="M132.77,309.74c.83-6.79,1.77-14.27,10.55-25.62a107,107,0,0,1,22.45-21.82c12-8.5,27.52-14.68,37.51-15.38,18.33-1.29,27,7.94,27,7.94s-5.29-9.13-18.64-11c0,0,8.57-4.29,8.49-8.51,0,0-2.32,5.32-22,8.3-26.63,4-52.08,24.28-60.3,40.5S132.77,309.74,132.77,309.74Z" style="fill:#263238"/><path d="M150,302.39c3.52,14.2,15.6,24.66,30,24.66,17.12,0,31-14.85,31-33.17,0-12.81-6.78-23.92-16.72-29.45C194.24,264.43,165.66,275.91,150,302.39Z" style="fill:#c389cc"/><path d="M194.24,264.43A105.12,105.12,0,0,0,163.82,285,205.41,205.41,0,0,0,150,302.49a33.12,33.12,0,0,0,13.64,19.58c-1.27-6.7-.24-17,11.32-28.19,7.44-7.22,19.49-14.54,30.91-18.15A32,32,0,0,0,194.24,264.43Z" style="opacity:.2"/><path d="M194.08,267.14c8.95,5.47,14.46,15.61,14.46,26.74,0,17-12.82,30.75-28.58,30.75-12.63,0-23.75-8.94-27.36-21.86,13.43-22,36.3-33.29,41.48-35.63m.16-2.71s-28.58,11.48-44.25,38c3.52,14.2,15.6,24.66,30,24.66,17.12,0,31-14.85,31-33.17,0-12.81-6.78-23.92-16.72-29.45Z" style="fill:#263238"/><ellipse cx="179.96" cy="293.88" rx="15.68" ry="16.78" style="fill:#263238"/><path d="M153.31,315.09c-.71-2,1.18-4.49,4.23-5.6s6.11-.39,6.83,1.6-1.17,4.49-4.23,5.59S154,317.07,153.31,315.09Z" style="fill:#fafafa"/><path d="M179.46,291a5.68,5.68,0,1,1-5.68-5.68A5.68,5.68,0,0,1,179.46,291Z" style="fill:#fafafa"/><path d="M220.17,324.66c15.33-7,19.51-16.64,24.51-19.43s6-1.11,9-3.58a4.68,4.68,0,0,0,.34-6.21c-1.64-2-4.5-3.89-6-7.24-2-4.51-14-53.93-58.29-28.38s-59,62.44-59,62.44,7.55,2.08,14.75-6.43,35.39-44.52,57.55-53.17c20.58-8,25.57-1.54,30.42,2.83s9.21,14.86,13,24.05c1.85,4.56,4.07,5,5.68,6.67s1.71,4.39-2.28,5.6-6.54.58-10.19,5.14A71.29,71.29,0,0,1,220.17,324.66Z" style="fill:#263238"/><path d="M244.17,284.12c2.53,6.28,2.41,13.17.72,16.23A14.62,14.62,0,0,0,248,291Z" style="fill:#263238"/><path d="M185.35,273.7c14.21-10.3,30.65-13.36,41-11s24.08,1.24,32.26-8.52c-9.15,5.68-19.18,5.55-35.59,2.28S191,266.24,185.35,273.7Z" style="fill:#263238"/><path d="M232.29,261c4.68.32,7.75,3.9,12.93,5.32a9.55,9.55,0,0,0,6.7-.39c-1.56,1.89-4.53,2.57-6.75,2.43-3.6-.22-6.74-2.48-9.9-2.84A6.36,6.36,0,0,0,232.29,261Z" style="fill:#263238"/><path d="M144.6,330.27c5.64,5.4,16.57,10.7,33.36,11.86,11.77.82,23.92-.36,34.51-6.23-2.14,2-16.1,11.32-34.52,10.19C158,344.87,149,336.46,144.6,330.27Z" style="fill:#f28f8f"/><path d="M251.92,179.46c4.85,1.92,1.72,15.07-8.11,20.75S188.29,205,168.1,213.27s-39.5,22.61-54.79,52.22c5.21-27,24.34-47.83,45.39-61.56s55.61-15.07,70.36-17.91S251.92,179.46,251.92,179.46Z" style="fill:#263238"/><path d="M253.64,194.53a21.78,21.78,0,0,1-14.75,10.38c-7.47,1.34-.27,2.42,6.46.63s13.21-8.17,13.21-11S256.21,190.34,253.64,194.53Z" style="fill:#fafafa"/></g></g></g><g id="freepik--Plants--inject-397"><g id="freepik--Flower--inject-397"><path d="M71.58,311.42c6.88-7.86,12.25-24.74,11.55-37.88-.89-16.7-7.24-25.15-7.24-25.15l-3.34,11.49-2.83-12.6s-7.87,10.24-9.35,22.87,2,37.27,2,37.27-6.29-19.53-16.42-30.21-24.72-12.56-24.72-12.56l6.38,8.7-9.45-5.12s3,16.68,12.44,25.54,25.59,17.84,25.59,17.84-6.36-4-23-2.32-22.08,8.44-25.5,13.44l10.51-1.52-5.81,5.94s7.07,4.09,18.19,1.12a167.53,167.53,0,0,0,22.17-7.95s-12.23,8-19,21-6.29,23.05-2.62,28.8L37,362l-2,10s7.63-2.41,11.93-9c4.88-7.5,12.81-18.88,13.92-38.06,0,0,2.46,21.17,9.69,31.93s12.95,13.24,19.12,14.31l-1.94-11,6.62,7.94s2.65-6.61.1-17.52c-2.83-12.07-11.73-23.33-20.82-30.88,0,0,12.81,7.69,26.11,4.23s18.57-9.36,18.57-9.36l-7.9-1.95,7.71-1.58s-7.75-5.42-21.56-6.27C82.5,303.91,71.58,311.42,71.58,311.42Z" style="fill:#c389cc"/><path d="M100.55,312.19a96.76,96.76,0,0,0-18.84-1.55c-3.41.1-6.82.43-10.21.87-1.17.15-2.33.33-3.49.53q.9-2.73,1.67-5.51A94.33,94.33,0,0,0,72.11,295a111.15,111.15,0,0,0,.69-23.84c0-.54-.51-.25-.51.16a100.76,100.76,0,0,1-2.49,23c-.84,3.77-1.73,7.5-2.88,11.19-.58,1.87-1.24,3.71-1.92,5.54l-.46,1.24c-.66-1.25-1.34-2.48-2.06-3.69q-2.61-4.43-5.66-8.59a87,87,0,0,0-13.48-14.63c-2.72-2.34-5.63-5.11-9-6.52-.07,0-.11.12-.07.16A63.11,63.11,0,0,0,39,283.43c1.55,1.44,3.07,2.91,4.52,4.45,2.78,2.95,5.38,6.08,7.86,9.29A93.91,93.91,0,0,1,58,307q1.52,2.57,2.88,5.22c.23.45.45.93.66,1.41-.41-.11-.82-.22-1.23-.31a27.27,27.27,0,0,0-4.59-.55,40.9,40.9,0,0,0-8.83.69c-3,.55-6,1.21-9,1.86-1.51.33-3,.66-4.53,1.12s-2.89,1.14-4.34,1.73c0,0-.06.11,0,.1a72.79,72.79,0,0,1,9.19-1.66c3.1-.44,6.22-.64,9.35-.88a70.64,70.64,0,0,1,8.48-.32,26.37,26.37,0,0,1,4.24.5,13.84,13.84,0,0,1,1.67.48c-10.71,8.32-16.34,20.9-21.06,33.25-.09.23.13.48.26.19,5.26-11.6,11.4-23.79,22.19-31.19a1,1,0,0,0,.18-.17c3.5,4.95,6.85,10,10,15.22,3.42,5.68,6.42,11.57,9.54,17.42.19.36.45-.19.36-.42a199.1,199.1,0,0,0-16.56-32.37,1.2,1.2,0,0,0,.1-.63,5.55,5.55,0,0,0-.28-1.27c1-.21,2.06-.51,2.69-.63,1.89-.35,3.78-.68,5.67-.95,2.65-.39,5.32-.66,8-.93a158.21,158.21,0,0,1,17.55-.91C100.79,313,100.88,312.25,100.55,312.19Z" style="opacity:.2"/><path d="M66.84,310.54c1.52-5.24.36-14.41-2.86-20.47-4.1-7.71-9-10.32-9-10.32l.94,6.18-4.11-5.35a27.39,27.39,0,0,0,.6,12.89c2.08,6.31,9.14,17.2,9.14,17.2S54.32,302.81,47.18,300s-14.46-.51-14.46-.51l4.93,2.71-6.23,1.61s5.71,5.29,12.13,7.41a71.89,71.89,0,0,0,14.74,2.7s-2.59-.38-10.11,4.08-8.6,8.85-9.12,12l4.64-3-2.26,4.28a17.73,17.73,0,0,0,10.25-3.46,32.33,32.33,0,0,0,7.48-7.61A28.09,28.09,0,0,0,55.5,333c-.33,7.65,1.07,13.35,4.06,15.27l1.34-6.94,1.5,7a12.85,12.85,0,0,0,3.53-6.23c1.25-5.14.81-12.5-1-21.67,0,0,5,7.83,10.82,11.33s11.28,3.07,13.12,2.5l-4.06-3.61,5.21,1.74a26.79,26.79,0,0,0-4.6-8.05A30.28,30.28,0,0,0,69.61,314s7.75.82,13.29-3.74,6.73-8.52,6.73-8.52l-4.17.82,2.79-3.41s-4.64-.54-11.07,2.74A32.31,32.31,0,0,0,66.84,310.54Z" style="fill:#c389cc"/><path d="M66.84,310.54c1.52-5.24.36-14.41-2.86-20.47-4.1-7.71-9-10.32-9-10.32l.94,6.18-4.11-5.35a27.39,27.39,0,0,0,.6,12.89c2.08,6.31,9.14,17.2,9.14,17.2S54.32,302.81,47.18,300s-14.46-.51-14.46-.51l4.93,2.71-6.23,1.61s5.71,5.29,12.13,7.41a71.89,71.89,0,0,0,14.74,2.7s-2.59-.38-10.11,4.08-8.6,8.85-9.12,12l4.64-3-2.26,4.28a17.73,17.73,0,0,0,10.25-3.46,32.33,32.33,0,0,0,7.48-7.61A28.09,28.09,0,0,0,55.5,333c-.33,7.65,1.07,13.35,4.06,15.27l1.34-6.94,1.5,7a12.85,12.85,0,0,0,3.53-6.23c1.25-5.14.81-12.5-1-21.67,0,0,5,7.83,10.82,11.33s11.28,3.07,13.12,2.5l-4.06-3.61,5.21,1.74a26.79,26.79,0,0,0-4.6-8.05A30.28,30.28,0,0,0,69.61,314s7.75.82,13.29-3.74,6.73-8.52,6.73-8.52l-4.17.82,2.79-3.41s-4.64-.54-11.07,2.74A32.31,32.31,0,0,0,66.84,310.54Z" style="opacity:.25"/><path d="M75.44,308.42a43.18,43.18,0,0,1,4-2.12c.16-.07.22-.58,0-.52a33.34,33.34,0,0,0-4.24,1.28A29.45,29.45,0,0,0,71,309.12a35.38,35.38,0,0,0-5.6,4.14c0-1.07,0-2.14-.12-3.08a46.13,46.13,0,0,0-1-6.5A37.3,37.3,0,0,0,60,292.54c-.08-.13-.2.12-.16.22a40.47,40.47,0,0,1,3.59,11.63,35.75,35.75,0,0,1,.29,5.76c0,1.17-.16,2.37-.24,3.57a28.39,28.39,0,0,0-8.08-6.37,23.78,23.78,0,0,0-12.43-3c-.11,0-.19.3-.06.33a38.45,38.45,0,0,1,12,4.19,29,29,0,0,1,5.07,3.58A27.93,27.93,0,0,1,62.36,315a17.87,17.87,0,0,0-2.36.39,16.08,16.08,0,0,0-4.08,1.48,21.11,21.11,0,0,0-3.57,2.34q-.9.74-1.74,1.53c-.65.61-1.2,1.33-1.86,1.92,0,0,0,.14,0,.08a15.38,15.38,0,0,1,3.67-2.66,26.31,26.31,0,0,1,3.68-1.74,24.65,24.65,0,0,1,4.13-1.18,16.69,16.69,0,0,1,2-.27,36.25,36.25,0,0,0-1.64,17.86c.06.37.41.09.4-.17a46.44,46.44,0,0,1,2.81-17.74h.13l.25.29c.37.42.64.23.79-.13a41.09,41.09,0,0,1,7.43,3.68,50.8,50.8,0,0,1,7.48,5.49c.08.08.15-.12.13-.17a7,7,0,0,0-2.5-3.42c-1.38-1.16-2.84-2.21-4.25-3.34a29.77,29.77,0,0,0-6.81-4.13,40.83,40.83,0,0,1,5.28-4.35C72.94,309.94,74.18,309.15,75.44,308.42Z" style="opacity:.30000000000000004"/><path d="M65.57,315.13a2.47,2.47,0,1,1-2.6-2.34A2.47,2.47,0,0,1,65.57,315.13Z" style="fill:#263238"/><path d="M64.51,311.2a.84.84,0,1,1-.88-.79A.84.84,0,0,1,64.51,311.2Z" style="fill:#263238"/><path d="M60.46,312.65a.84.84,0,1,1-.88-.79A.83.83,0,0,1,60.46,312.65Z" style="fill:#263238"/><path d="M60.06,316.79a.84.84,0,1,1-.88-.8A.84.84,0,0,1,60.06,316.79Z" style="fill:#263238"/><path d="M63.32,319.35a.84.84,0,1,1-.88-.79A.83.83,0,0,1,63.32,319.35Z" style="fill:#263238"/><path d="M67.25,318.08a.84.84,0,1,1-.89-.79A.84.84,0,0,1,67.25,318.08Z" style="fill:#263238"/><path d="M68.23,314.15a.84.84,0,1,1-.88-.8A.84.84,0,0,1,68.23,314.15Z" style="fill:#263238"/><path d="M66.52,312a.32.32,0,0,1-.31.34.32.32,0,0,1-.34-.3.33.33,0,0,1,.31-.35A.32.32,0,0,1,66.52,312Z" style="fill:#263238"/><path d="M61.54,311.36a.33.33,0,1,1-.34-.31A.32.32,0,0,1,61.54,311.36Z" style="fill:#263238"/><path d="M58.79,314.65a.32.32,0,0,1-.31.34.31.31,0,0,1-.34-.3.33.33,0,0,1,.3-.35A.33.33,0,0,1,58.79,314.65Z" style="fill:#263238"/><path d="M60.5,318.9a.33.33,0,1,1-.34-.31A.32.32,0,0,1,60.5,318.9Z" style="fill:#263238"/><path d="M65.16,319.14a.33.33,0,1,1-.34-.31A.32.32,0,0,1,65.16,319.14Z" style="fill:#263238"/><path d="M67.63,316a.33.33,0,0,1-.65,0,.32.32,0,0,1,.3-.34A.33.33,0,0,1,67.63,316Z" style="fill:#263238"/></g><g id="freepik--flower--inject-397"><path d="M59.5,244.89c5.35-1.17,12.88-6.61,16.68-12.37C81,225.19,81,219.65,81,219.65l-5,3.81,2.74-6.2A27.4,27.4,0,0,0,67.64,224c-4.57,4.87-10.78,16.34-10.78,16.34s3.43-10.2,2.49-17.86-6.51-13-6.51-13l0,5.66L48.4,210.4s-1.91,7.58-.69,14.27A72.73,72.73,0,0,0,52.42,239s-1.77-4.32-8.1-8.36c-7.4-4.74-11.56-5.52-17.65-5.91l3.61,3.17-5-.79A26,26,0,0,0,37,239.81a24.3,24.3,0,0,0,10.31,2.94,28.29,28.29,0,0,0-13.13,2.95c-6.91,3.4-11.26,7.37-11.51,10.94l6.77-2.16-5.42,4.68a12.88,12.88,0,0,0,7.18.11C36.38,257.9,42.66,254,49.9,248c0,0-4.48,8.2-4.78,15s2.72,11.43,4.1,12.78l1.24-5.32,1,5.43A27,27,0,0,0,56.32,268,30.45,30.45,0,0,0,57.77,249s3,7.23,9.7,9.92,10.75,1.84,10.75,1.84l-2.72-3.28,4.34.82s-1.75-4.36-7.74-8.45A32.63,32.63,0,0,0,59.5,244.89Z" style="fill:#c389cc"/><path d="M59.5,244.89c5.35-1.17,12.88-6.61,16.68-12.37C81,225.19,81,219.65,81,219.65l-5,3.81,2.74-6.2A27.4,27.4,0,0,0,67.64,224c-4.57,4.87-10.78,16.34-10.78,16.34s3.43-10.2,2.49-17.86-6.51-13-6.51-13l0,5.66L48.4,210.4s-1.91,7.58-.69,14.27A72.73,72.73,0,0,0,52.42,239s-1.77-4.32-8.1-8.36c-7.4-4.74-11.56-5.52-17.65-5.91l3.61,3.17-5-.79A26,26,0,0,0,37,239.81a24.3,24.3,0,0,0,10.31,2.94,28.29,28.29,0,0,0-13.13,2.95c-6.91,3.4-11.26,7.37-11.51,10.94l6.77-2.16-5.42,4.68a12.88,12.88,0,0,0,7.18.11C36.38,257.9,42.66,254,49.9,248c0,0-4.48,8.2-4.78,15s2.72,11.43,4.1,12.78l1.24-5.32,1,5.43A27,27,0,0,0,56.32,268,30.45,30.45,0,0,0,57.77,249s3,7.23,9.7,9.92,10.75,1.84,10.75,1.84l-2.72-3.28,4.34.82s-1.75-4.36-7.74-8.45A32.63,32.63,0,0,0,59.5,244.89Z" style="fill:#fff;opacity:.5"/><path d="M65.51,251.46c1.27.79,2.6,1.57,3.78,2.48.14.11.62-.08.45-.26a33.45,33.45,0,0,0-3.17-3.13,30.37,30.37,0,0,0-3.8-2.65A35.18,35.18,0,0,0,56.42,245c.95-.5,1.86-1.09,2.66-1.59a46.33,46.33,0,0,0,5.26-4,37.33,37.33,0,0,0,7.72-9.22c.08-.14-.2-.12-.27,0a40.27,40.27,0,0,1-8.53,8.76,35.21,35.21,0,0,1-4.94,3c-1,.54-2.17,1-3.26,1.5a28.57,28.57,0,0,0,1.73-10.2,23.88,23.88,0,0,0-3.36-12.39c-.06-.1-.36,0-.32.1a38.66,38.66,0,0,1,2.07,12.57,30.17,30.17,0,0,1-.72,6.21,30.07,30.07,0,0,1-1.05,3.38,20.21,20.21,0,0,0-1.48-1.9,16,16,0,0,0-3.27-2.88,20.79,20.79,0,0,0-3.78-2c-.72-.3-1.42-.61-2.16-.84a15,15,0,0,0-2.62-.68c-.05,0-.13,0-.06.06a15.05,15.05,0,0,1,4.11,1.95,27,27,0,0,1,3.32,2.41,25.84,25.84,0,0,1,3,3.08,17.53,17.53,0,0,1,1.2,1.63A36.36,36.36,0,0,0,35.14,251c-.3.23.12.4.34.27a46.75,46.75,0,0,1,17-6.05,1.05,1.05,0,0,0,.07.11l-.14.36c-.19.52.11.68.5.63a40.67,40.67,0,0,1,.32,8.33A49.59,49.59,0,0,1,52,263.93c0,.11.18.08.22,0A7,7,0,0,0,54,260.11c.36-1.77.59-3.57.9-5.35a29.82,29.82,0,0,0,.37-8,41.75,41.75,0,0,1,6.37,2.56C63,250,64.26,250.7,65.51,251.46Z" style="fill:#c389cc;opacity:.6000000000000001"/><path d="M55.23,246.71a2.59,2.59,0,1,1,.84-3.56A2.59,2.59,0,0,1,55.23,246.71Z" style="fill:#455a64"/><path d="M58.3,243.77a.86.86,0,0,1-1.2-.28.88.88,0,0,1,.28-1.21.89.89,0,0,1,1.21.29A.88.88,0,0,1,58.3,243.77Z" style="fill:#455a64"/><path d="M54.94,240.79a.88.88,0,0,1-1.2-.29.88.88,0,0,1,1.49-.92A.88.88,0,0,1,54.94,240.79Z" style="fill:#455a64"/><path d="M51,242.49a.88.88,0,0,1-1.2-.29A.86.86,0,0,1,50,241a.88.88,0,0,1,1.21.28A.89.89,0,0,1,51,242.49Z" style="fill:#455a64"/><path d="M50.23,246.76a.88.88,0,1,1-.92-1.49.88.88,0,0,1,.92,1.49Z" style="fill:#455a64"/><path d="M53.36,249.72a.88.88,0,0,1-1.21-.28.89.89,0,0,1,.29-1.21.88.88,0,0,1,1.2.29A.86.86,0,0,1,53.36,249.72Z" style="fill:#455a64"/><path d="M57.46,248.66a.89.89,0,0,1-1.21-.29.88.88,0,0,1,.29-1.2.86.86,0,0,1,1.2.28A.88.88,0,0,1,57.46,248.66Z" style="fill:#455a64"/><path d="M58.57,246a.36.36,0,0,1-.47-.11.34.34,0,1,1,.47.11Z" style="fill:#455a64"/><path d="M56.67,241.13a.34.34,0,1,1,.11-.47A.34.34,0,0,1,56.67,241.13Z" style="fill:#455a64"/><path d="M52.27,240.25a.34.34,0,1,1,.11-.47A.34.34,0,0,1,52.27,240.25Z" style="fill:#455a64"/><path d="M49.23,243.94a.33.33,0,0,1-.35-.57.33.33,0,1,1,.35.57Z" style="fill:#455a64"/><path d="M51.35,248.34a.34.34,0,1,1,.11-.47A.34.34,0,0,1,51.35,248.34Z" style="fill:#455a64"/><path d="M55.42,249.05a.33.33,0,0,1-.46-.11.34.34,0,0,1,.11-.47.33.33,0,0,1,.46.11A.34.34,0,0,1,55.42,249.05Z" style="fill:#455a64"/></g><g id="freepik--flower--inject-397"><path d="M455.52,160.64c4.27-3.68,8.43-12.29,9.05-19.36.8-9-1.95-14-1.95-14L460,133.17l-.56-6.95a28.19,28.19,0,0,0-6.73,11.51c-1.76,6.64-1.77,20.07-1.77,20.07s-1.88-10.91-6.48-17.4-12.25-8.58-12.25-8.58l2.75,5.13-6.31-2.12s2,7.8,6.35,13.26a74.3,74.3,0,0,0,11.25,10.64s-3.71-3-11.42-3.61c-9-.66-13.16.66-18.86,3.28l4.81,1.11-4.88,1.72A26.75,26.75,0,0,0,432.7,167a24.93,24.93,0,0,0,10.77-2.38,29.1,29.1,0,0,0-10.44,9.1c-4.6,6.45-6.6,12.18-5.08,15.53L433,184l-2.61,6.88a13.32,13.32,0,0,0,6.56-3.4c4-3.76,7.74-10.39,11.37-19.33,0,0,0,9.61,3,15.91s8.06,9,10,9.56l-1.49-5.41,3.54,4.44a27.7,27.7,0,0,0,.55-9.58A31.36,31.36,0,0,0,456,165.21s6.26,5.08,13.62,4.24,10.64-3.59,10.64-3.59l-4.07-1.64,4.34-1.38s-3.72-3.09-11.15-3.87A33.53,33.53,0,0,0,455.52,160.64Z" style="fill:#c389cc"/><path d="M455.52,160.64c4.27-3.68,8.43-12.29,9.05-19.36.8-9-1.95-14-1.95-14L460,133.17l-.56-6.95a28.19,28.19,0,0,0-6.73,11.51c-1.76,6.64-1.77,20.07-1.77,20.07s-1.88-10.91-6.48-17.4-12.25-8.58-12.25-8.58l2.75,5.13-6.31-2.12s2,7.8,6.35,13.26a74.3,74.3,0,0,0,11.25,10.64s-3.71-3-11.42-3.61c-9-.66-13.16.66-18.86,3.28l4.81,1.11-4.88,1.72A26.75,26.75,0,0,0,432.7,167a24.93,24.93,0,0,0,10.77-2.38,29.1,29.1,0,0,0-10.44,9.1c-4.6,6.45-6.6,12.18-5.08,15.53L433,184l-2.61,6.88a13.32,13.32,0,0,0,6.56-3.4c4-3.76,7.74-10.39,11.37-19.33,0,0,0,9.61,3,15.91s8.06,9,10,9.56l-1.49-5.41,3.54,4.44a27.7,27.7,0,0,0,.55-9.58A31.36,31.36,0,0,0,456,165.21s6.26,5.08,13.62,4.24,10.64-3.59,10.64-3.59l-4.07-1.64,4.34-1.38s-3.72-3.09-11.15-3.87A33.53,33.53,0,0,0,455.52,160.64Z" style="fill:#fff;opacity:.5"/><path d="M464.17,163.65c1.54.09,3.12.15,4.64.39.18,0,.51-.37.28-.45a34.06,34.06,0,0,0-4.4-1.29,31.41,31.41,0,0,0-4.74-.54,36.05,36.05,0,0,0-7.19.44c.61-.92,1.16-1.89,1.63-2.74a48.46,48.46,0,0,0,2.82-6.18,38.45,38.45,0,0,0,2.48-12.12c0-.17-.25,0-.26.09A42.18,42.18,0,0,1,456,153.36a37.83,37.83,0,0,1-3,5.16c-.68,1-1.49,2-2.22,2.95a29.52,29.52,0,0,0-3.42-10.07,24.51,24.51,0,0,0-9.1-9.58c-.1-.06-.34.15-.24.24a40.1,40.1,0,0,1,8,10.38,30.47,30.47,0,0,1,2.38,6,29.24,29.24,0,0,1,.7,3.57,21.76,21.76,0,0,0-2.26-1,16.79,16.79,0,0,0-4.38-1,20.88,20.88,0,0,0-4.4,0c-.8.08-1.58.14-2.37.29a15,15,0,0,0-2.7.67c-.05,0-.1.1,0,.08a15.23,15.23,0,0,1,4.67-.24,26.74,26.74,0,0,1,4.18.56,25,25,0,0,1,4.23,1.31,18,18,0,0,1,1.89.88,37.48,37.48,0,0,0-11.49,14.56c-.15.36.31.31.44.08a48.19,48.19,0,0,1,12.43-13.79l.12.07c0,.13,0,.26.05.39.08.57.43.56.76.33a42.67,42.67,0,0,1,4.37,7.38,52.49,52.49,0,0,1,3.39,9c0,.12.2,0,.21-.07a7.14,7.14,0,0,0-.25-4.38c-.54-1.78-1.21-3.52-1.8-5.28a30.77,30.77,0,0,0-3.57-7.42,42.52,42.52,0,0,1,7-.8C461.15,163.55,462.67,163.56,464.17,163.65Z" style="fill:#c389cc;opacity:.6000000000000001"/><path d="M452.54,164.37a2.66,2.66,0,1,1-1-3.63A2.66,2.66,0,0,1,452.54,164.37Z" style="fill:#455a64"/><path d="M453.88,160.21a.9.9,0,0,1-1.23.33.9.9,0,1,1,.9-1.56A.89.89,0,0,1,453.88,160.21Z" style="fill:#455a64"/><path d="M449.39,159.15a.9.9,0,1,1-.33-1.23A.9.9,0,0,1,449.39,159.15Z" style="fill:#455a64"/><path d="M446.6,162.64a.9.9,0,1,1-.33-1.23A.9.9,0,0,1,446.6,162.64Z" style="fill:#455a64"/><path d="M448,166.86a.9.9,0,1,1-.33-1.23A.9.9,0,0,1,448,166.86Z" style="fill:#455a64"/><path d="M452.32,168a.9.9,0,1,1-.33-1.23A.9.9,0,0,1,452.32,168Z" style="fill:#455a64"/><path d="M455.51,165a.9.9,0,1,1-.33-1.23A.9.9,0,0,1,455.51,165Z" style="fill:#455a64"/><path d="M455.23,162.11a.36.36,0,0,1-.48.13.35.35,0,0,1,.35-.61A.37.37,0,0,1,455.23,162.11Z" style="fill:#455a64"/><path d="M451.12,158.61a.35.35,0,0,1-.61-.35.35.35,0,1,1,.61.35Z" style="fill:#455a64"/><path d="M446.7,160a.35.35,0,1,1-.12-.48A.35.35,0,0,1,446.7,160Z" style="fill:#455a64"/><path d="M445.76,164.8a.35.35,0,0,1-.61-.35.35.35,0,1,1,.61.35Z" style="fill:#455a64"/><path d="M449.82,167.74a.34.34,0,0,1-.47.13.35.35,0,0,1-.13-.48.35.35,0,0,1,.47-.13A.35.35,0,0,1,449.82,167.74Z" style="fill:#455a64"/><path d="M453.86,166.39a.35.35,0,0,1-.48.13.36.36,0,0,1-.13-.48.35.35,0,0,1,.48-.12A.34.34,0,0,1,453.86,166.39Z" style="fill:#455a64"/></g><g id="freepik--Leaves--inject-397"><path d="M412.62,374.14a87,87,0,0,1-12.71,27.79,92.38,92.38,0,0,1-18.34,19.43,165.72,165.72,0,0,1-21.31,14,304.73,304.73,0,0,1-30.84,15.81,145.31,145.31,0,0,1-32.75,10,256.28,256.28,0,0,1-30.4,3.39,308.33,308.33,0,0,1-62.95-2.94,186.69,186.69,0,0,1-23.4-5c-3.32.53-7,.94-11.15,1.18l.59.25a142.88,142.88,0,0,0,26.8,6.95,291.68,291.68,0,0,0,62.61,3.87c22-.89,44.13-3.68,64.72-11.74a251.24,251.24,0,0,0,32.43-15.85,206.57,206.57,0,0,0,22.9-14.51,96.9,96.9,0,0,0,18.63-18.23,84.2,84.2,0,0,0,13.34-26.22c.82-2.65,1.53-5.34,2.15-8.05C413,374,412.7,373.84,412.62,374.14Z" style="fill:#e0e0e0"/><path d="M416.44,354.05a22.51,22.51,0,0,1-5.68,10.3c-2.77,3-5.9,5.72-8.31,9.07-4.27,5.95-6.17,13.15-6.51,20.4a61,61,0,0,0,.76,12.44,1.16,1.16,0,0,0,.89,1,.62.62,0,0,0,.64-.79c-1.14-7.24-1.19-14.8.85-21.89a33.79,33.79,0,0,1,4.44-9.78c2.35-3.46,5.36-6.41,7.94-9.68s5-6.85,5.25-11.07c0-.24-.23-.21-.27,0Z" style="fill:#e0e0e0"/><path d="M416.93,353.48a13.89,13.89,0,0,0-.06,3.47c.08,1.22.23,2.43.4,3.64.34,2.45.69,4.89.91,7.36a52.46,52.46,0,0,1-.49,12.64,33.82,33.82,0,0,1-4.1,11.74,37.06,37.06,0,0,1-8.1,9.37c-1.75,1.5-3.59,2.89-5.48,4.22-.94.67-1.9,1.34-2.85,2a10.17,10.17,0,0,0-1.45,1.06c-.38.39-.79.75-1.19,1.12s-.14,1.5.43,1.24a22.62,22.62,0,0,0,3.06-1.57c.91-.59,1.81-1.18,2.7-1.8,1.73-1.2,3.42-2.45,5.05-3.78A41.92,41.92,0,0,0,414.3,395,33.08,33.08,0,0,0,419,383a45.9,45.9,0,0,0,.32-13.24c-.29-2.68-.86-5.29-1.3-8-.23-1.38-.45-2.78-.61-4.17s-.14-2.82-.36-4.2c0-.13-.14,0-.15.07Z" style="fill:#e0e0e0"/><path d="M420,409.87a39,39,0,0,0-8.35,7.13c-1.34,1.41-2.71,2.79-4,4.21a55.89,55.89,0,0,1-4.17,4.12c-3,2.66-6.51,4.83-10.58,5.43a39.06,39.06,0,0,1-12.76-.42,45,45,0,0,0-5.16-.93,12.37,12.37,0,0,0-3,.15c-1.17.2-3,.55-3.52,1.72-.23.49.34,1.12.83,1.14,1.22,0,2.35-.56,3.55-.73a9.8,9.8,0,0,1,2.36,0c1.42.14,2.8.57,4.2.83a41.17,41.17,0,0,0,13,.48,22,22,0,0,0,11-5.05,48.52,48.52,0,0,0,7.5-8.24,43.18,43.18,0,0,1,9.2-9.4c.15-.1.1-.54-.12-.41Z" style="fill:#e0e0e0"/><path d="M419.22,410.41A32.84,32.84,0,0,0,415.4,412c-1.28.65-2.56,1.32-3.87,1.92a26.31,26.31,0,0,1-8.33,2.14c-5.62.64-11.49.52-16.79,2.78a21,21,0,0,0-4,2.18,19.47,19.47,0,0,0-1.81,1.45,20,20,0,0,0-1.58,1.73c-.39.44.47,1.44.94,1a29.56,29.56,0,0,1,7.38-4.65,28.08,28.08,0,0,1,7.75-1.94c5.6-.68,11.34-.6,16.48-3.24,1.27-.66,2.49-1.42,3.73-2.15s2.62-1.65,4-2.39c.16-.09.18-.55,0-.47Z" style="fill:#e0e0e0"/><path d="M390.35,386.32c-1.71,2.82-4.47,4.89-7,6.93a29.46,29.46,0,0,0-7,7.52,32.44,32.44,0,0,0-3.73,10,50.09,50.09,0,0,0-.83,5.31c-.21,2.08-.32,4.18-.72,6.24a23.65,23.65,0,0,1-1.92,5.78,23.41,23.41,0,0,1-1.49,2.68,16.72,16.72,0,0,0-1.78,2.87c-.12.31.2,1.17.65.89,1.59-1,2.61-2.88,3.48-4.5a24.67,24.67,0,0,0,2-5c1.08-3.81,1.05-7.8,1.65-11.69A34.94,34.94,0,0,1,376.75,403a28.16,28.16,0,0,1,6.32-8c1.39-1.3,2.82-2.55,4.15-3.92a19.77,19.77,0,0,0,3.26-4.56c.06-.12,0-.36-.13-.19Z" style="fill:#e0e0e0"/><path d="M389.73,387.65c-2,1.29-2.26,3.77-2.56,5.91-.44,3.07-.71,6.17-1.09,9.25-.68,5.51-1.67,11-4.26,16A28.59,28.59,0,0,1,376,426.4c-.32.3.14,1.24.55,1,4.37-2.91,7-7.76,8.61-12.65,1.83-5.57,2.3-11.41,2.6-17.24.09-1.75.15-3.51.3-5.26a6.34,6.34,0,0,1,1.69-4.35c.06-.05.06-.29,0-.22Z" style="fill:#e0e0e0"/><path d="M382.5,401.14c-2.21,3.88-2.53,8.43-3.46,12.72s-2.1,8.51-4.62,12.16a22.2,22.2,0,0,1-5.1,5.09c-.37.27.12,1.18.55,1,3.51-1.79,6-5.42,7.57-8.92,2-4.35,2.68-9,3.29-13.74.36-2.78.61-5.59,1.89-8.14,0-.09-.05-.27-.12-.13Z" style="fill:#e0e0e0"/><path d="M400,422c-3.54,2.17-7.86,2.71-11.91,3.14s-8.25.7-12.19,2a18.74,18.74,0,0,0-2.95,1.27,10.15,10.15,0,0,0-1.24.81,6.64,6.64,0,0,0-.64.55,2.46,2.46,0,0,0-.47.78c-.15.25,0,1,.44.81a10.34,10.34,0,0,0,1.49-.65c.48-.27,1-.54,1.46-.79a23.24,23.24,0,0,1,2.55-1.13,31.94,31.94,0,0,1,5.54-1.42c4-.7,8-1.07,11.85-2.17a20.83,20.83,0,0,0,6.12-2.94c.11-.07.1-.4,0-.3Z" style="fill:#e0e0e0"/><path d="M320.76,455.51c.92,3.78,4.09,6.78,7.33,8.69a26,26,0,0,0,11.83,3.33c9.05.49,18-2.35,27-1.65a26.46,26.46,0,0,1,6.6,1.31,26,26,0,0,1,6.5,3.46c.45.31.55-.46.27-.71-6.26-5.47-14.74-5.67-22.59-5.12-5,.35-10,1.12-15.06,1.22a27.85,27.85,0,0,1-12.21-2.12,18.46,18.46,0,0,1-5.11-3.4,16.21,16.21,0,0,1-3.47-5.18c-.27-.6-1.32-.67-1.12.17Z" style="fill:#e0e0e0"/><path d="M336,450.14c1.73-.06,3.47.06,5.19.1s3.3.06,4.95.16a55.85,55.85,0,0,1,9.47,1.27,35.25,35.25,0,0,1,16.49,8.7,60,60,0,0,1,7.94,10.14c.2.3.38-.19.3-.38a33.16,33.16,0,0,0-6.54-9.43,35.38,35.38,0,0,0-7.87-6.18,42,42,0,0,0-18.42-5.12,46.21,46.21,0,0,0-5.52,0c-2,.12-4,.46-6,.71,0,0,0,.07,0,.07Z" style="fill:#e0e0e0"/><path d="M325,455.38c1.1-.77,2.48-.72,3.77-.83,1.53-.12,3.07-.19,4.61-.25a71.15,71.15,0,0,1,9,.25A74,74,0,0,1,359.25,458c1.58.53,3.08,1.22,4.64,1.79a33.1,33.1,0,0,1,4.69,2.16c.05,0,.1-.12,0-.15a64.61,64.61,0,0,0-7.61-4,75.14,75.14,0,0,0-8.64-3.07,60.33,60.33,0,0,0-18.09-2.1,47.79,47.79,0,0,0-5.2.45,9.22,9.22,0,0,0-4.46,1.4c-.32.25,0,1.09.41.82Z" style="fill:#e0e0e0"/><path d="M303.9,445.46c-5.79,1.48-10.8,4.92-15.47,8.53-2.49,1.91-5,3.81-7.59,5.55a41.08,41.08,0,0,1-8.55,4.38,44.42,44.42,0,0,1-5,1.58c-1.9.47-3.86.69-5.74,1.19A.91.91,0,0,0,261,468a1.57,1.57,0,0,0,.71.71c.1.06.88.28.88.14h-.31a2.18,2.18,0,0,0,.57,0l.76-.05a14.64,14.64,0,0,0,1.47-.15c.88-.13,1.76-.3,2.63-.49a44.39,44.39,0,0,0,4.67-1.33,42.19,42.19,0,0,0,9-4.36,68.41,68.41,0,0,0,7.41-5.73c2.31-2,4.52-4.07,7-5.89a31.82,31.82,0,0,1,8.24-4.71c.3-.1.27-.84-.1-.75Z" style="fill:#e0e0e0"/><path d="M323.67,432.76c-2.51,1.8-4.28,4.62-6,7.13a37.27,37.27,0,0,1-6.28,7.05A35.33,35.33,0,0,1,295,455c-2,.37-4,.85-5.92,1.41a28.57,28.57,0,0,0-5.88,2.22c-.87.48.31,2.06,1.12,1.8,1.9-.59,3.76-1.31,5.67-1.88,1.7-.5,3.41-.91,5.14-1.3a38,38,0,0,0,8.7-3.12,34.35,34.35,0,0,0,7.55-5.08,36.3,36.3,0,0,0,6.07-7.24c1-1.52,2-3.05,2.93-4.58a28.85,28.85,0,0,1,3.4-4.24c.06-.06.08-.31-.06-.21Z" style="fill:#e0e0e0"/><path d="M323.66,432.64a19.81,19.81,0,0,1-4.41,1.76,48.12,48.12,0,0,1-4.91,1,107.18,107.18,0,0,0-10.63,2.2,30.51,30.51,0,0,0-20.09,17.74c-.72,1.75-1.3,3.85-2.85,5.06-.53.42.06,1.66.72,1.28a7.33,7.33,0,0,0,2.91-4,36.67,36.67,0,0,1,2.25-4.79,30.68,30.68,0,0,1,6.82-8,29.58,29.58,0,0,1,9.56-5.32,89.52,89.52,0,0,1,10.68-2.76,52.79,52.79,0,0,0,5.41-1.35,11.23,11.23,0,0,0,4.66-2.5c.11-.11.11-.56-.12-.42Z" style="fill:#e0e0e0"/><path d="M254.32,484.41a29.7,29.7,0,0,0-3.2-.64c-1-.1-2-.17-3-.21-1.89-.07-3.78-.08-5.66-.16a38.26,38.26,0,0,1-10.19-1.69,34.58,34.58,0,0,1-15.38-10c-1.14-1.3-2.13-2.72-3.19-4.09s-2.46-3.12-4.23-3.81c-.93-.36-1,.89-.52,1.38s1.31,1.17,1.92,1.81a21,21,0,0,1,1.61,1.9c1,1.31,2,2.66,3.06,3.91a36.46,36.46,0,0,0,16.05,10.54A37.44,37.44,0,0,0,241.69,485c2.15.08,4.3,0,6.45.06,1,0,2,0,3.06,0s2-.06,3.06,0c.31,0,.35-.63.06-.69Z" style="fill:#e0e0e0"/><path d="M260.05,486.72a15.86,15.86,0,0,1-4.18-1.76,17.9,17.9,0,0,1-3.34-2.53c-2.07-2-3.72-4.34-5.59-6.5a32.79,32.79,0,0,0-6.57-6,25.33,25.33,0,0,0-7.13-3.22A28.54,28.54,0,0,0,224,465.5c-1.1.07-.63,1.68.19,1.86,1,.22,2,.45,3,.57.72.08,1.43.17,2.14.28a34.11,34.11,0,0,1,3.62.73,22.67,22.67,0,0,1,6.4,2.85,39.15,39.15,0,0,1,6.5,5.41c2.05,2.08,4,4.31,6.13,6.27a17.27,17.27,0,0,0,3.6,2.58,13.11,13.11,0,0,0,2.12.87,5.32,5.32,0,0,0,1,.15c.43.06.85.16,1.28.22.25,0,.33-.52.09-.57Z" style="fill:#e0e0e0"/><path d="M239.06,479.34a58.9,58.9,0,0,0-9.57-7.66,52.41,52.41,0,0,0-5.31-3.13,35.87,35.87,0,0,0-4.56-1.94c-.77-.26-1.55-.51-2.34-.7a3.25,3.25,0,0,0-1.9-.09c-.7.23-.11,1.32.27,1.54a15.42,15.42,0,0,0,3.7,1.13,29.54,29.54,0,0,1,2.87,1,42.53,42.53,0,0,1,5.68,2.76c3.83,2.21,7.27,5,11.1,7.22.05,0,.09-.09.06-.13Z" style="fill:#e0e0e0"/><path d="M259.5,442.4a5.83,5.83,0,0,0-2.2-.19,10.94,10.94,0,0,0-2.29.68,20.17,20.17,0,0,0-4,2.16,67.1,67.1,0,0,0-7.41,6.25c-4.85,4.47-9.83,9.14-16,11.62a23,23,0,0,1-10.64,1.61c-1.09-.09-.6,1.6.21,1.75,6.49,1.19,13.11-1.7,18.29-5.41,5.4-3.86,9.7-8.93,14.82-13.1a23.52,23.52,0,0,1,4.49-2.95,14.88,14.88,0,0,1,2.24-.88,24.79,24.79,0,0,0,2.49-.92c.21-.09.29-.55,0-.62Z" style="fill:#e0e0e0"/><path d="M238.39,448.29a16.47,16.47,0,0,0-2.91.86,27.25,27.25,0,0,0-2.65,1.45,49.56,49.56,0,0,0-4.9,3.5,93.88,93.88,0,0,1-9.92,7.28A31.92,31.92,0,0,1,215,463a24.93,24.93,0,0,0-3.33,1.35c-.71.47,0,1.75.74,1.68a8.41,8.41,0,0,0,2.93-1,27.36,27.36,0,0,0,2.53-1.43,45.9,45.9,0,0,0,4.87-3.7c3.22-2.76,6.26-5.71,9.81-8a29.23,29.23,0,0,1,2.92-1.7c1-.5,1.94-1.1,3-1.52.1,0,.14-.35,0-.32Z" style="fill:#e0e0e0"/><path d="M259.5,442.4a46.18,46.18,0,0,0-21.88.91,44.91,44.91,0,0,0-10.82,4.41,86.05,86.05,0,0,0-10.34,7.35l-12.05,9.6c-.79.64.42,2.32,1.21,1.69l10.69-8.52a109.09,109.09,0,0,1,10.14-7.49,51.3,51.3,0,0,1,21.44-7.16,48.43,48.43,0,0,1,11.54-.17c.27,0,.34-.56.07-.62Z" style="fill:#e0e0e0"/></g><g id="freepik--leaves--inject-397"><path d="M180.76,97.43a23.11,23.11,0,0,1,9-6.68c4-1.71,8.21-2.82,12-4.92,6.44-3.55,11.23-9.26,14.65-15.68a60.5,60.5,0,0,0,4.59-11.44,1.19,1.19,0,0,0-.47-1.26c-.32-.22-.86-.26-1,.2a51.86,51.86,0,0,1-9.74,19.05,34.36,34.36,0,0,1-8,7.06c-3.63,2.25-7.72,3.66-11.55,5.51s-7.67,4.08-9.7,7.86c0,.11,0,.51.16.3Z" style="fill:#e0e0e0"/><path d="M180.09,97.7a12.16,12.16,0,0,0,1.47-2.87c.44-1.09.81-2.19,1.17-3.31s.69-2.24,1-3.36.81-2.25,1.21-3.37a54.78,54.78,0,0,1,5.53-11,33,33,0,0,1,19.76-14.65,69.93,69.93,0,0,1,7.32-1.68l3.58-.61c.61-.1,1.26-.14,1.86-.3s1.16-.35,1.74-.52.34-1.3-.19-1.3a27.51,27.51,0,0,0-3.74.23c-1.12.15-2.23.32-3.34.51-2.23.38-4.44.83-6.63,1.4a39.25,39.25,0,0,0-12,5.19,33.79,33.79,0,0,0-8.63,8.69,44.49,44.49,0,0,0-5.53,11.47c-.84,2.51-1.39,5.1-2.11,7.64-.36,1.27-.74,2.53-1.17,3.79s-1,2.59-1.44,3.92c0,.08,0,.2.12.1Z" style="fill:#e0e0e0"/><path d="M224.27,81.15c2.71-2.32,6.3-3.45,9.57-4.74A27.19,27.19,0,0,0,242.9,71a34.36,34.36,0,0,0,6.27-8.35c1.84-3.33,3-7,4.91-10.28a24.12,24.12,0,0,1,3.67-4.75,24.7,24.7,0,0,1,2.29-2,14.2,14.2,0,0,0,2.19-1.82c.31-.38-.1-1.12-.59-1a12.23,12.23,0,0,0-4.48,3.09,25,25,0,0,0-3.49,4.07c-2.19,3.2-3.39,6.9-5.1,10.36a35.84,35.84,0,0,1-6.06,9A27.41,27.41,0,0,1,234,75.09c-1.76.81-3.55,1.57-5.26,2.48a19.19,19.19,0,0,0-4.51,3.34c-.09.08-.05.36.09.24Z" style="fill:#e0e0e0"/><path d="M225.27,80.07c2.38-.63,3.47-3.09,4.45-5.12,1.34-2.77,2.55-5.6,3.86-8.39,2.37-5.06,5.06-10,9.13-13.94a27.74,27.74,0,0,1,7.63-5.18c.5-.23,0-1.18-.46-1-5.08,1.52-9.1,5.33-12.14,9.55-3.5,4.86-5.75,10.38-7.88,15.94-.59,1.55-1.14,3.13-1.81,4.66a6.06,6.06,0,0,1-2.78,3.27c-.08,0-.11.27,0,.24Z" style="fill:#e0e0e0"/><path d="M236.32,69.48c3.35-3,5.05-7.28,7.31-11.09s4.72-7.58,8.36-10.27A21.1,21.1,0,0,1,258.18,45c.46-.16.08-1.13-.36-1-4.15.69-7.81,3.61-10.49,6.73-3.14,3.65-5.16,8-7.23,12.25a22.19,22.19,0,0,1-3.85,6.31c-.07.07-.05.31.07.2Z" style="fill:#e0e0e0"/><path d="M201.51,47.84c8-1.44,14.54-6.67,22.06-9.31A21.72,21.72,0,0,1,230,37.21a19.26,19.26,0,0,1,6.12.89A40.4,40.4,0,0,1,246.81,43a23.06,23.06,0,0,0,3.93,2.22,12.24,12.24,0,0,0,2.72.77c1.19.18,2.73.4,3.75-.37.5-.38.2-1-.22-1.26-.86-.61-2-.37-3-.53a8.81,8.81,0,0,1-2.08-.58,23.52,23.52,0,0,1-3.55-2,43.61,43.61,0,0,0-10.49-4.84A22.17,22.17,0,0,0,225,36.15a45.4,45.4,0,0,0-11.26,5.39c-3.85,2.39-7.81,4.68-12.23,5.84-.19,0-.18.5,0,.46Z" style="fill:#e0e0e0"/><path d="M202.47,47.61a29.11,29.11,0,0,0,3.85-.18c1.41-.16,2.81-.35,4.22-.48a25.18,25.18,0,0,1,8.64.76c5.42,1.35,10.8,3.4,16.46,3.26a22.2,22.2,0,0,0,4.87-.64A20.89,20.89,0,0,0,245,48.5c.56-.29-.18-1.4-.72-1.19a28.08,28.08,0,0,1-8.63,1.83,28.6,28.6,0,0,1-8-1c-5.36-1.28-10.6-3.24-16.2-2.61-1.42.15-2.82.42-4.23.68-1.58.29-3.17.65-4.76.88-.18,0-.19.47,0,.47Z" style="fill:#e0e0e0"/><path d="M224.45,43.41c4.21-.83,8.59.19,12.67,1.21,3.86,1,7.71,2.1,11.72,2.17a17.82,17.82,0,0,0,3.26-.17,11.06,11.06,0,0,0,1.59-.36,2.25,2.25,0,0,0,1.37-.76c.26-.21.08-.92-.29-.9-2,.11-4,.59-6,.59a33.87,33.87,0,0,1-5.6-.58c-4.05-.72-8-1.85-12.15-2.15a20.73,20.73,0,0,0-6.61.62c-.13,0-.15.36,0,.33Z" style="fill:#e0e0e0"/><path d="M312,39.16c.11-4-2.37-7.89-5.16-10.62a27.26,27.26,0,0,0-11.49-6.33c-8.48-2.49-17.61-2.16-25.92-5.31a25.32,25.32,0,0,1-10.78-7.79c-.38-.46-.64.21-.41.55,4.31,6.43,11.77,9,19,10.53,4.53.93,9.12,1.52,13.66,2.44s8.93,2.22,12.66,4.92a19.44,19.44,0,0,1,4.72,4.77,16.34,16.34,0,0,1,2.5,6.67c.1.6,1.18,1,1.2.17Z" style="fill:#e0e0e0"/><path d="M295.84,40.35c-1.66-.39-3.28-1-4.92-1.41s-3.17-.91-4.74-1.42a56.47,56.47,0,0,1-8.94-3.74,35.1,35.1,0,0,1-13.7-12.89,61.58,61.58,0,0,1-4.92-11.66c-.12-.37-.39,0-.36.24a34.69,34.69,0,0,0,9.81,18.79A42.12,42.12,0,0,0,284.45,38a50.06,50.06,0,0,0,5.13,1.46c2.07.47,4.14.67,6.24,1,0,0,.05-.06,0-.07Z" style="fill:#e0e0e0"/><path d="M307.78,38.16c-1.48.53-3.15,0-4.64-.29s-2.8-.59-4.19-.92a68,68,0,0,1-8.37-2.58,71.8,71.8,0,0,1-15.78-8.11,62.37,62.37,0,0,1-7.31-5.84c-.05-.05-.12.1-.08.14a70.58,70.58,0,0,0,6.67,6,73.31,73.31,0,0,0,7.58,5.16,59.77,59.77,0,0,0,16.61,6.53,47.14,47.14,0,0,0,4.86.88c1.59.21,3.37.52,4.9-.11.4-.17.16-1-.25-.9Z" style="fill:#e0e0e0"/><path d="M288.41,59.32c6.09-1,11.45-4.09,16.59-7.34,2.56-1.61,5.1-3.24,7.77-4.67a44.27,44.27,0,0,1,9.35-3.69,41,41,0,0,1,5.13-1.06c.89-.12,1.77-.21,2.66-.29l1.56-.16a2.93,2.93,0,0,0,1.65-.42,1,1,0,0,0-.3-1.6,6.37,6.37,0,0,0-3.21-.44c-.84,0-1.67.12-2.5.22a46.57,46.57,0,0,0-5.25,1,42.55,42.55,0,0,0-9.45,3.54c-5.38,2.77-9.91,6.81-15,10a31.76,31.76,0,0,1-9,4.17c-.28.07-.27.81,0,.76Z" style="fill:#e0e0e0"/><path d="M267.6,70.19a15.68,15.68,0,0,0,3.34-2.8c1.16-1.18,2.21-2.43,3.28-3.7A37,37,0,0,1,281,57.26a38.68,38.68,0,0,1,8.08-4.48,34,34,0,0,1,9.33-2.17c2-.2,4-.51,6-.89a26.31,26.31,0,0,0,5.73-1.58c1.06-.48,0-2.12-.93-1.9-1.83.42-3.64.91-5.48,1.29s-3.55.63-5.34.87a38.16,38.16,0,0,0-9.1,2.33A34.3,34.3,0,0,0,275,61.35c-1.24,1.56-2.43,3.14-3.64,4.71a28.89,28.89,0,0,1-3.76,3.9c-.05.05-.09.3,0,.23Z" style="fill:#e0e0e0"/><path d="M267.63,70.3A19.46,19.46,0,0,1,272.19,69a50.07,50.07,0,0,1,5.05-.61c1.54-.12,3.08-.22,4.62-.41,2.15-.27,4.35-.46,6.48-.9a30.44,30.44,0,0,0,21.34-16c.83-1.63,1.61-3.56,3.22-4.59.49-.32,0-1.62-.6-1.35a7.34,7.34,0,0,0-3.33,3.7,37.29,37.29,0,0,1-2.62,4.49A30.63,30.63,0,0,1,299,60.56a29.44,29.44,0,0,1-9.73,4.49A87.45,87.45,0,0,1,277.8,67a53.3,53.3,0,0,0-5.48.84,10.92,10.92,0,0,0-4.77,2c-.13.11-.19.58.08.46Z" style="fill:#e0e0e0"/><path d="M345,19.53c.75.56,1.49,1.16,2.27,1.67s1.72,1,2.6,1.47c1.69.88,3.4,1.7,5.09,2.58a38.1,38.1,0,0,1,8.86,6.13,34.57,34.57,0,0,1,9.58,16.18c.44,1.66.69,3.37,1.1,5A16.44,16.44,0,0,0,375.2,55a7.13,7.13,0,0,0,.57,1.18c.26.41.8,1.22,1.36,1.28,1.16.11.41-1.69.2-2.15a15.29,15.29,0,0,1-.87-2.46c-.44-1.67-.69-3.38-1.11-5.06a35.48,35.48,0,0,0-9.41-16.57,39.83,39.83,0,0,0-9.58-6.81c-1.94-1-3.92-1.9-5.88-2.86-.9-.44-1.81-.87-2.7-1.34s-1.79-.82-2.65-1.32c-.3-.17-.39.5-.18.66Z" style="fill:#e0e0e0"/><path d="M340.75,15a16,16,0,0,1,4.89,7c1.09,2.88,1.51,5.94,2.35,8.89a29.42,29.42,0,0,0,3.39,8,25.28,25.28,0,0,0,4.92,5.65,38.7,38.7,0,0,0,3.48,2.63c.61.41,1.23.8,1.86,1.19a19.54,19.54,0,0,0,2.63,1.21.66.66,0,0,0,.86-.45,1.22,1.22,0,0,0-.44-1.18,27.09,27.09,0,0,0-2.3-1.73c-.57-.36-1.13-.73-1.69-1.1-1-.65-2-1.41-2.74-2a22.7,22.7,0,0,1-4.57-5.19,38.82,38.82,0,0,1-3.62-7.48c-1-2.84-1.89-5.77-3-8.56a18.36,18.36,0,0,0-2.21-4.06,14.81,14.81,0,0,0-1.57-1.78,14.62,14.62,0,0,0-2-1.46c-.23-.15-.35.4-.17.54Z" style="fill:#e0e0e0"/><path d="M356.5,30.62a65.43,65.43,0,0,0,6,11.9,46,46,0,0,0,4.33,5.94c.72.81,1.47,1.6,2.26,2.34a7.34,7.34,0,0,0,3,2.11.5.5,0,0,0,.41-.09c.13-.09.12-.3.21-.37a8.24,8.24,0,0,0-.8-1.56,3.22,3.22,0,0,0-.28-.24l-.48-.39c-.33-.26-.65-.52-1-.8-.62-.52-1.21-1.06-1.79-1.63a44.15,44.15,0,0,1-3.21-3.62,67,67,0,0,1-5.66-8.65c-1-1.69-1.89-3.42-3-5,0-.07-.1.05-.09.1Z" style="fill:#e0e0e0"/><path d="M324.61,57.21c2.61,1.94,6.35,1.61,9.4,1.08a79.28,79.28,0,0,0,9.51-2.62c6.15-1.92,12.47-3.87,19-3.44a22.51,22.51,0,0,1,10.15,3.14.56.56,0,0,0,.81-.38,1.15,1.15,0,0,0-.45-1.14c-5-3.64-11.78-4.08-17.75-3.2-6.82,1-13.1,3.84-19.74,5.54a25.78,25.78,0,0,1-5.46.86c-1.8.06-3.55-.34-5.34-.45-.28,0-.3.48-.12.61Z" style="fill:#e0e0e0"/><path d="M346.17,60.91a16,16,0,0,0,3.08.46,26,26,0,0,0,2.92-.16,47.83,47.83,0,0,0,5.93-1.06,103.43,103.43,0,0,1,12.07-2.39,28.67,28.67,0,0,1,3.46-.2c1.27,0,2.53.28,3.78.21.86-.05.35-1.49-.18-1.68a14.53,14.53,0,0,0-6.16-.16A44.62,44.62,0,0,0,365,57.18a104.68,104.68,0,0,1-11.94,3,30.8,30.8,0,0,1-3.32.31c-1.17,0-2.35.17-3.52.11-.12,0-.18.3-.06.33Z" style="fill:#e0e0e0"/><path d="M324.61,57.21a46.7,46.7,0,0,0,20.14,8.42,44.48,44.48,0,0,0,11.63.66,87.63,87.63,0,0,0,13-2.3l14.73-3.46c1.05-.25.12-2.09-.83-1.86l-12.95,3a115,115,0,0,1-12.73,2.52,50.72,50.72,0,0,1-22.44-2.8,47.77,47.77,0,0,1-10.35-4.81c-.25-.17-.37.44-.17.59Z" style="fill:#e0e0e0"/><path d="M415.6,85.8a86.65,86.65,0,0,0-15.52-17.53,131,131,0,0,0-40.26-23.64,92.71,92.71,0,0,0-29.61-6.49q-9-.66-18-.77a248.73,248.73,0,0,0-33.3,1.7c-4.65.57-9.29,1.31-13.86,2.34s-8.82,2.28-13.2,3.56a195.25,195.25,0,0,0-26.47,9.46,86.13,86.13,0,0,0-23.19,15.25,78.42,78.42,0,0,0-9.56,10.79c-.12.16,0,.66.17.41C205,65.8,222.56,57,240.69,51.15c4.5-1.45,9-2.75,13.58-4s8.91-2.51,13.45-3.38a180.32,180.32,0,0,1,31.53-3,307.37,307.37,0,0,1,34.33,1.46c.8.08,1.61.16,2.41.26l1,.13.47.06h0c.19,0,.21,0,.06,0h0l.36.06c1.39.23,2.77.49,4.14.8C345,44.22,348,45.05,351,46a132.16,132.16,0,0,1,39.87,20.81,95.7,95.7,0,0,1,15.82,15.08,53.65,53.65,0,0,1,9.77,5.28C416.17,86.71,415.89,86.25,415.6,85.8Z" style="fill:#e0e0e0"/></g><g id="freepik--leaves--inject-397"><path d="M142.65,87.5c-11.52-17.51-23.81-11.67-34-11.41a32,32,0,0,1-19.31-6.21c5.93,10.24,18.27,19.8,30.55,19.67C130.19,89.44,136.62,85.38,142.65,87.5Z" style="fill:#e0e0e0"/><path d="M164.81,84.74c-1.25-12.86-8-23.15-19.6-27.89S128.36,45,128.36,45C133.91,72.76,155.73,83.08,164.81,84.74Z" style="fill:#e0e0e0"/></g><g id="freepik--leaves--inject-397"><path d="M428.65,354.57c16.54-12.88,9.74-24.66,8.67-34.82A32,32,0,0,1,442,300c-9.74,6.73-18.28,19.79-17.17,32C425.73,342.3,430.29,348.39,428.65,354.57Z" style="fill:#e0e0e0"/><path d="M433.18,376.44c12.71-2.27,22.43-9.84,26.24-21.76s10.48-17.75,10.48-17.75C442.65,344.68,434.1,367.26,433.18,376.44Z" style="fill:#e0e0e0"/></g></g></svg>