<svg width="488" height="456" viewBox="0 0 488 456" fill="none" xmlns="http://www.w3.org/2000/svg">
<g clip-path="url(#clip0_135_40)">
<path fill-rule="evenodd" clip-rule="evenodd" d="M211.397 133.291C208.018 136.385 206.716 141.52 207.32 146.619C207.598 148.977 209.076 152.242 208.398 154.428C207.587 157.045 204.682 155.922 203.39 157.81C200.443 162.117 206.391 166.325 209.599 166.312C212.157 166.302 214.667 165.997 217.176 165.787C219.531 165.589 221.324 167.522 223.295 169.164C221.361 169.386 219.403 169.415 217.463 169.656C216.628 169.76 215.339 169.663 214.536 169.982C213.568 170.368 213.192 171.375 212.311 171.865C210.796 172.706 209.298 171.843 209.414 174.424C209.5 176.327 210.91 178.186 212.526 178.627C211.77 180.36 209.15 181.591 207.777 182.645C205.788 184.172 203.67 185.426 202.022 187.462C200.666 183.177 199.637 179.769 196.607 176.416C195.136 174.787 191.787 169.966 189.76 169.733C189.151 169.662 188.439 170.033 187.821 170.015C187.179 169.996 186.672 169.509 186.018 169.694C184.827 170.03 184.065 172.043 183.698 173.318C182.772 176.54 184.189 180.777 185.313 183.95C186.476 187.229 188.079 191.299 190.208 193.999C190.702 194.627 191.232 195.34 191.954 195.582C192.479 195.758 193.196 195.261 193.636 195.511C195.234 196.418 193.812 197.677 193.142 198.755C191.43 201.507 190.018 204.096 189.154 207.336C188.424 210.072 187.037 213.551 187.59 216.586C185.193 214.563 183.167 212.065 181.062 209.67C179.866 208.31 179.953 208.635 180.314 207.204C180.595 206.089 181.301 204.797 181.917 203.885C183.178 202.019 184.464 200.033 184.155 197.339C183.921 195.303 181.906 192.041 180.78 190.262C179.34 187.988 177.028 186.627 175.294 188.77C174.009 190.357 174.442 194.443 173.038 195.479C171.453 196.647 170.101 191.529 169.495 190.183C168.364 187.67 165.795 183.655 165.721 180.858C165.663 178.681 168.093 176.742 169.146 175.073C170.711 172.594 172.088 169.632 172.783 166.608C173.494 163.507 172.516 160.889 171.276 157.93C170.553 156.204 168.772 151.447 166.562 153.275C165.29 154.327 162.059 166.774 159.738 163.454C159.084 162.518 158.958 159.677 158.702 158.44C158.515 157.537 157.183 153.379 157.503 152.639C157.626 152.355 159.798 151.271 160.184 150.753C161.108 149.509 161.65 148.092 161.925 146.456C162.836 141.035 157.813 134.602 152.955 134.852C149.788 135.015 148.587 136.716 147.822 139.991C147.082 143.161 143.607 142.992 141.166 144.472C140.166 143.046 140.931 139.375 140.91 137.702C140.88 135.237 140.894 132.664 140.415 130.206C139.479 125.408 136.985 120.703 134.348 116.738C135.94 116.531 138.047 115.746 139.5 116.736C140.957 117.727 142.277 120.292 143.656 121.601C146.318 124.126 149.321 126.851 152.422 128.548C156.471 130.763 157.204 128.898 158.602 125.208C160.018 121.468 157.443 117.637 155.433 114.209C157.239 113.268 159.649 113.198 161.641 112.957C163.446 112.738 166.665 111.799 168.492 112.545C169.859 113.104 169.786 114.207 170.452 115.944C171.352 118.294 172.44 120.613 173.788 122.71C176.533 126.975 179.901 127.671 182.39 123.58C184.179 125.078 186.263 127.148 188.445 127.628C190.587 128.1 194.226 127.894 196.308 127.424C198.928 126.833 200.546 124.859 202.178 122.683C202.977 121.618 203.076 120.921 204.161 121.215C204.963 121.432 206.484 123.179 207.382 123.665C208.388 124.208 209.45 124.666 210.485 125.112C210.979 125.357 211.48 125.574 211.989 125.763C212.966 125.73 213.465 126.258 213.486 127.346C214.66 129.083 215.412 131.08 216.505 132.865C217.796 134.974 219.536 135.796 221.611 136.068C222.304 136.078 222.999 136.13 223.694 136.225C224.78 135.909 225.186 136.341 224.912 137.522C225.335 138.859 224.818 141.259 224.53 142.508C223.293 140.719 220.238 139.258 218.676 140.677C216.86 142.326 217.682 145.211 218.54 147.398C216.981 147.087 215.506 146.393 214.032 145.683C213.316 145.338 212.212 145.024 211.587 144.459C210.503 143.479 210.762 144.083 210.74 142.295C210.716 140.319 213.358 134.601 211.397 133.291Z" fill="#7FBBCA"/>
<path fill-rule="evenodd" clip-rule="evenodd" d="M174.837 65.6522C176.848 65.6324 177.271 66.4617 178.966 66.9867C180.693 67.5216 183.144 65.8637 185.153 65.9399C186.208 65.98 186.986 66.41 187.983 66.7482C188.588 66.9532 188.587 67.1643 189.181 67.2515C189.49 67.2964 190.044 66.9489 190.386 66.9293C192.758 66.7964 193.912 69.7566 195.497 69.9067C196.717 70.0229 196.943 68.9782 198.432 69.5769C199.272 69.9151 200.257 70.7324 200.879 71.4739C201.185 71.8378 201.799 73.1932 202.016 73.3552C202.701 73.8669 202.394 73.5681 202.974 73.7934C204.166 74.2568 205.282 73.8978 206.733 74.8547C208.7 76.153 210.824 77.0031 211.959 79.4181C212.151 79.8277 212.287 80.2177 212.393 80.6006L212.31 80.381C212.492 80.868 212.674 81.3541 212.855 81.8404C212.7 81.4271 212.546 81.0142 212.392 80.6017C212.63 81.4584 212.714 82.2792 212.936 83.2047C213.155 84.1159 213.055 84.1509 213.417 84.7389C213.661 85.1348 214.476 85.5142 214.83 86.1003C217.603 90.6953 212.481 98.4812 208.05 96.8056C207.736 100.847 207.885 104.947 207.633 108.99C207.496 111.205 204.945 117.092 205.679 118.404C206.284 119.485 208.813 119.54 209.786 119.845C211.55 120.399 213.334 121.175 215.072 121.854C216.583 122.443 218.064 123.111 219.552 123.739L219.508 123.74C220.237 123.709 220.877 124 221.458 124.509C222.462 124.892 223.477 125.234 224.514 125.501C226.109 125.911 226.515 125.96 227.61 127.439C228.731 128.952 227.815 128.59 229.431 129.272C232.57 130.598 236.624 130.323 239.878 130.87C247.094 132.082 253.705 131.824 260.095 128.281C265.832 125.1 270.471 119.845 275.357 115.342C280.195 110.884 284.932 106.182 289.247 101.099C293.327 96.2915 297.298 91.3153 300.73 85.8255C302.653 82.749 304.803 79.87 306.575 76.6716C308.316 73.5296 309.806 70.1831 311.608 67.1026C315.14 61.0662 319.003 55.1347 322.943 49.4307C324.066 47.8055 325.146 46.1405 326.217 44.4689C326.863 43.4626 327.946 40.7841 329.188 40.6803C333.061 40.3542 331.171 46.9653 331.066 48.7575C332.499 47.0759 333.433 44.9659 334.966 43.349C335.749 42.5218 337.787 39.8284 339.039 40.2949C341.98 41.3894 338.335 49.2201 337.885 50.9123C339.061 49.4446 342.836 43.9134 345.076 46.7534C347.422 49.7264 344.047 55.1989 342.953 57.6159C339.722 64.7455 335.346 70.9404 331.977 77.934C331.512 78.8985 329.737 81.2619 330.334 82.5461C330.891 83.746 333.457 84.5233 334.474 85.1148C336.475 86.277 342.868 90.0973 340.716 93.726C339.957 95.0061 336.691 95.1794 335.376 95.4237C333.449 95.782 331.566 96.1835 329.613 96.4063C326.741 96.7335 323.304 95.0915 320.567 95.855C317.49 96.7134 315.21 100.901 313.073 103.251C310.562 106.009 308.233 108.922 305.748 111.714C301.006 117.045 296.662 122.711 291.624 127.757C286.101 133.289 279.714 137.76 274.341 143.482C268.872 149.305 262.839 152.515 255.477 154.556C248.29 156.549 238.952 153.447 231.835 150.51C231.423 150.338 231.011 150.166 230.599 149.994C229.656 149.108 229.121 149.247 228.995 150.409C228.137 150.873 227.812 151.158 226.695 151.413C224.872 151.831 223.836 151.644 221.983 151.454C217.782 151.025 214.595 150.662 210.802 147.757C210.739 153.509 216.795 157.639 220.397 160.985C222.381 162.829 224.508 164.513 226.358 166.541C227.859 168.188 229.13 171.083 231.104 171.391C232.283 171.575 232.647 170.537 233.714 171.522C234.411 172.164 234.205 173.22 234.327 173.911C234.637 175.667 233.19 173.513 234.475 175.84C234.881 176.574 236.298 177.772 236.84 178.393C240.534 182.628 243.906 187.215 247.345 191.717C250.766 196.195 254.155 200.63 257.543 205.13C259.004 207.071 260.722 208.744 262.155 210.72C263.902 213.13 265.343 215.768 267.054 218.213C269.711 222.007 271.729 227.499 272.016 232.2C272.297 236.804 269.041 242.659 265.253 243.557C268.237 247.029 271.324 250.022 274.357 253.399C277.2 256.563 279.618 260.137 282.481 263.148C285.74 266.575 288.835 270.353 292.074 273.696C294.81 276.519 297.069 280.005 299.721 282.915C305.765 289.547 311.779 296.529 318.063 303.02C321.718 306.795 325.194 310.77 328.878 314.52C330.847 316.526 332.837 318.502 334.824 320.485C335.971 321.629 337.731 324.384 339.28 324.623C339.044 325.216 338.151 326.687 338.324 327.387C338.784 329.251 340.203 328.246 341.007 327.714C343.05 326.363 345.001 325.008 346.883 323.409C350.487 320.348 353.661 316.624 357.369 313.727C361.218 310.718 364.433 306.578 368.58 303.934C370.466 302.732 376.174 297.203 377.67 299.851C377.953 300.351 378.066 301.735 378.276 302.384C378.649 303.531 379.231 304.477 379.47 305.717C379.926 308.092 379.575 310.72 379.133 312.963C378.074 318.333 376.683 323.709 374.589 328.581C370.999 336.936 368.661 347.355 363.151 354.252C362.058 355.621 361.264 357.684 359.85 358.669C358.28 359.763 356.583 359.55 355.002 359.967C354.132 360.196 354.261 360.768 353.085 360.64C352.119 360.535 350.646 359.672 349.751 359.252C347.493 358.192 345.371 356.616 343.302 355.095C341.474 353.749 339.066 350.838 336.986 350.267C335.831 349.95 336.198 350.93 334.9 349.822C334.184 349.21 333.894 348.444 333.065 347.866C332.18 347.248 331.748 347.258 331.022 346.404C330.514 345.808 330.291 345.142 329.693 344.554C327.703 342.598 325.181 341.178 323.11 339.275C320.014 336.432 316.5 334.239 313.331 331.529C309.54 328.286 305.472 325.149 301.531 322.175C293.938 316.444 286.527 309.819 279.081 303.582C271.026 296.836 263.147 289.408 255.764 281.681C251.808 277.539 247.398 273.715 243.338 269.668C239.37 265.712 235.526 261.468 231.247 257.986C230.854 258.677 232.386 260.25 231.945 261.232C231.484 262.261 228.145 263.353 227.29 263.827C224.368 265.447 221.266 267.201 218.139 268.346C211.698 270.704 205.748 274.296 199.27 276.715C197.822 277.256 196.569 277.353 195.04 277.456C192.747 277.61 192.253 277.439 192.592 280.026C193.108 283.961 193.585 288.193 194.487 292.061C195.418 296.057 196.6 299.978 197.793 303.909C198.362 305.783 198.91 307.665 199.508 309.528C200.379 312.238 201.848 314.686 202.585 317.434C203.524 320.935 203.957 324.101 201.226 326.036C199.698 327.118 199.576 326.851 198.029 326.138C196.402 325.389 194.406 324.879 192.911 323.854C187.354 320.045 181.978 313.947 178.642 307.559C174.863 300.319 174.066 291.476 172.316 283.642C171.58 280.349 170.057 275.165 171.179 272.01C172.377 268.638 176.61 267.398 179.366 266.486C179.996 266.277 180.46 266.047 180.84 265.783C180.741 265.803 180.644 265.827 180.55 265.86L181.065 265.615C181.729 265.084 182.152 264.418 182.893 263.522C183.934 262.263 185.693 261.236 186.905 260.152C190.2 257.205 193.97 255.05 197.376 252.281C200.131 250.042 203.027 248.322 205.937 246.405C208.066 245.001 210.466 244.102 212.663 242.893C212.384 242.941 212.104 242.989 211.856 243.114C212.277 242.514 212.954 242.554 213.545 242.38C214.07 242.059 214.579 241.711 215.064 241.326C208.913 234.672 203.033 227.765 196.566 221.498C196.278 223.682 194.779 224.195 192.806 224.104C191.702 224.053 190.929 223.04 189.874 222.926C189.216 222.854 189.116 223.734 188.337 223.376C187.884 223.168 187.311 222.11 186.8 221.21C182.136 218.274 179.088 214.235 175.841 209.436C177.789 211.58 179.661 213.83 181.641 215.934C182.09 216.411 182.616 216.873 183.169 217.334L183.003 217.183C182.242 216.486 181.49 215.771 180.778 214.98C174.489 207.997 169.978 200.621 165.888 191.903C162.226 184.096 159.281 175.561 156.912 167.248L157.203 168.315C157.104 167.952 157.005 167.588 156.905 167.225L156.912 167.248C156.746 166.668 156.589 166.091 156.44 165.516L156.44 165.516C155.512 161.943 154.883 158.431 154.481 154.734C154.324 153.289 154.261 151.109 153.858 149.751C153.614 148.927 152.143 144.983 151.845 144.831C150.689 144.244 147.472 146.005 146.541 146.428C144.845 147.2 143.196 148.08 141.501 148.854C141.16 149.006 140.818 149.158 140.476 149.31C139.731 149.322 139.305 149.705 139.201 150.459C138.334 150.943 139.79 151.472 138.22 151C136.396 150.454 135.231 146.64 134.679 144.917C134.47 144.265 134.009 141.376 133.473 141.017C133.06 140.74 131.076 141.531 130.553 141.643C128.567 142.069 126.539 142.411 124.576 142.932C120.702 143.961 116.862 145.3 113.05 146.528C106.276 148.71 100.994 154.358 96.6193 160.233C94.5987 162.946 92.1259 165.173 90.1509 167.914C88.2079 170.612 86.7111 173.644 84.8426 176.423C82.23 180.308 79.307 183.797 77.0753 188.004C76.0065 190.018 74.4294 192.193 73.9316 194.569C73.4312 196.955 74.925 199.003 75.6126 201.341C76.357 203.874 77.3377 206.499 77.7497 209.082C77.8927 209.978 78.2954 211.643 77.7992 212.416C77.0428 213.593 77.104 212.888 76.0439 212.598C71.4574 211.34 69.3216 206.943 66.832 202.894C63.6689 214.769 63.1002 227.508 60.3846 239.607C59.9688 241.461 59.4303 245.278 57.0091 244.278C55.5522 243.676 54.7628 241.856 54.3208 239.999L54.482 240.503C54.3273 240.02 54.174 239.54 54.0209 239.06C54.1209 239.372 54.2208 239.684 54.3202 239.995C54.0237 238.748 53.8839 237.485 53.8037 236.562C53.5039 233.103 53.0906 229.6 53.4441 226.196C53.6214 224.49 53.9511 222.823 54.1397 221.12C54.2367 220.25 54.806 218.4 54.4885 217.558C54.3212 218.126 54.1544 218.695 53.9872 219.264C52.7675 220.572 52.4942 223.645 51.695 225.383C50.9678 226.965 50.0872 228.588 49.2533 230.142C47.723 232.992 46.5419 235.935 45.4969 239.147C44.8626 241.096 43.8999 243.063 41.9648 240.472C40.4858 238.491 41.0681 236.109 41.3543 233.927C41.7285 231.073 42.1836 228.453 43.035 225.784C43.7567 223.523 44.9676 220.973 44.7427 218.483C42.8082 221.42 41.2536 224.624 38.9973 227.28C37.2018 229.392 33.5599 230.461 33.6076 225.814C33.6428 222.441 35.5567 217.75 36.8928 214.879C38.2812 211.894 40.0353 208.972 41.6416 206.131C45.376 199.525 49.9983 193.607 54.1658 187.363C57.9714 181.661 61.9645 176.152 65.7638 170.548C74.2951 157.962 82.2518 144.39 93.8003 135.061C99.1635 130.729 105.011 126.825 110.951 123.529C114.016 121.829 117.217 119.773 120.477 118.552C121.678 118.102 122.943 117.999 124.124 117.531C125.352 117.045 127.027 116.941 128.157 116.215C129.346 115.451 129.978 113.462 131.303 113.152C131.74 113.05 132.3 113.449 132.747 113.362C132.747 113.362 132.747 113.362 132.747 113.362C133.262 113.125 133.627 112.452 134.303 112.827C134.302 112.827 134.302 112.827 134.303 112.827C136.115 112.32 137.915 111.782 139.734 111.322L139.667 111.386C140.203 110.844 140.863 110.697 141.595 110.781C141.193 110.907 140.791 111.033 140.389 111.16C141.807 110.817 143.239 110.53 144.698 110.349C151.027 109.566 158.186 107.941 164.773 108.925C164.736 108.9 164.7 108.873 164.664 108.845C165.132 108.558 165.591 108.669 166.044 109.031C165.996 109.066 165.947 109.096 165.899 109.121C166.66 109.271 167.411 109.461 168.152 109.694C168.34 107.087 166.84 108.33 164.967 107.972C162.897 107.576 161.127 106.824 159.291 105.617C157.721 104.584 156.206 103.156 155.944 100.96C155.809 99.8245 156.695 99.0759 156.628 98.2339C156.605 97.9472 155.698 97.255 155.551 96.8797C155.198 95.9819 154.973 95.2793 154.868 94.3189C154.336 89.4479 152.079 83.6944 155.898 80.3233C156.725 79.5942 156.854 80.0735 157.288 78.9625C157.709 77.888 157.516 76.3857 158.014 75.2122C158.967 72.9684 160.42 70.9946 162.34 69.7893C164.354 68.5254 166.492 68.8203 168.573 68.0659C170.831 67.2476 172.213 65.6774 174.837 65.6522ZM373.295 309.768C372.202 311.757 371.049 313.74 369.871 315.661C367.177 320.057 364.834 324.676 362.426 329.296C360.247 333.476 357.738 337.397 355.367 341.423C353.113 345.249 351.366 349.472 349.406 353.524C351.74 354.228 354.44 355.502 356.562 354.144C358.284 353.041 359.9 350.422 361.13 348.664C363.993 344.571 365.89 339.577 367.866 334.842C369.803 330.201 371.628 325.689 373.349 320.966C375.283 315.655 376.318 310.849 376.898 305.035C374.811 304.265 374.079 308.342 373.295 309.768ZM348.468 328.972C346.525 330.508 344.353 331.6 342.402 333.089C340.705 334.384 339.753 337.077 339.118 339.265C338.701 340.701 338.623 342.261 338.318 343.762C338.146 344.612 337.152 346.797 337.394 347.497C337.708 348.401 340.684 349.975 341.436 350.508C342.829 351.495 344.24 352.443 345.663 353.366C345.997 349.173 348.622 344.91 350.512 341.509C352.472 337.979 354.578 334.433 356.646 330.898C361.211 323.091 365.426 315.477 370.75 308.287C369.964 307.251 350.728 327.184 348.468 328.972ZM337.088 330.176C335.949 333.906 333.842 338.377 334.428 342.608C335.189 340.394 335.74 338.052 336.443 335.807C336.75 334.831 337.106 333.934 337.504 333.009C338.234 331.314 338.637 331.318 337.088 330.176ZM229.088 177.768C224.99 179.471 221.005 181.688 217.191 184.07L217 184.13C217.304 184.034 217.605 183.94 217.905 183.845C217.666 183.921 217.427 183.997 217.189 184.071C216.268 184.646 215.357 185.231 214.456 185.821C205.584 191.631 197.628 200.126 193.275 210.806L193.129 211.167C192.994 211.879 192.501 212.972 192.912 213.743C192.325 213.543 192.079 213.289 192.04 213.002C192.009 213.136 191.989 213.277 191.981 213.426C194.437 214.261 196.774 217.222 198.809 219.076C201.103 221.167 203.526 223.047 205.774 225.212C210.661 229.919 215.48 234.852 220.123 239.875C228.158 248.57 237.14 256.393 245.551 264.606C253.948 272.806 262.058 280.94 270.448 289.127C279.381 297.843 288.947 305.69 297.98 314.083C303.367 319.088 309.125 323.559 314.578 328.479C319.738 333.135 324.851 337.807 330.058 342.392C329.985 335.908 331.887 329.717 335.789 325.19C325.714 316.314 315.877 307.202 306.399 297.467C298.234 289.081 290.65 280.475 282.804 271.853C275.075 263.36 267.403 254.837 259.628 246.367C255.744 242.136 252.146 237.539 248.521 232.982C244.664 228.134 241.832 222.271 237.833 217.582C235.964 215.39 233.592 212.927 232.806 209.95C232.065 207.143 232.814 203.801 233.371 201.173C233.702 199.614 233.975 195.482 235.512 194.976C238.285 194.063 237.092 201.758 237.071 203.205C236.973 209.869 241.416 214.198 245.226 218.934C248.947 223.56 252.329 228.578 256.162 233.099C257.77 234.997 259.377 236.839 260.913 238.795C261.444 239.47 263.032 241.738 263.843 241.755C264.307 241.765 265.887 239.534 266.132 239.193C267.374 237.465 268.923 234.654 269.277 232.38C269.627 230.129 268.184 226.934 267.083 224.994C263.884 219.359 259.356 214.47 255.433 209.476C251.315 204.234 247.063 198.951 243.207 193.464C241.123 190.5 239.134 187.473 236.966 184.58C235.734 182.935 234.477 181.314 233.184 179.729C231.542 177.715 231.204 176.888 229.088 177.768ZM177.176 273.312C175.511 275.102 175.165 275.879 175.567 278.585C175.984 281.397 177.011 283.978 177.626 286.742L177.63 286.761L177.75 287.243C177.711 287.084 177.671 286.925 177.631 286.766L177.626 286.742C178.582 291.04 179.451 295.363 180.541 299.565C181.965 305.058 185.253 309.565 188.752 313.643C190.291 315.439 191.83 317.17 193.719 318.483C194.879 319.29 196.119 319.893 197.352 320.506C198.912 321.279 199.319 321.932 199.605 320.125C199.955 317.903 198.205 315.031 197.278 313.047C195.817 309.918 194.609 306.874 193.594 303.548C193.228 302.019 192.831 300.497 192.429 298.977C192.389 298.856 192.35 298.735 192.311 298.614L192.428 298.974C191.445 295.259 190.436 291.551 189.801 287.758C189.573 286.394 189.385 285.024 189.256 283.653C189.138 282.403 189.492 279.954 189.046 278.831C188.596 277.699 186.37 276.025 185.47 274.191C184.954 273.14 184.581 271.97 184.176 270.871C183.587 269.278 183.794 268.782 182.455 268.711C180.855 268.625 178.183 272.23 177.176 273.312ZM152.219 267.284C152.287 269.386 150.686 272.007 149.999 273.806C148.126 278.721 146.975 283.476 145.952 288.747C144.31 297.202 143.392 306.739 144.426 315.699C140.674 318.374 138.944 307.852 138.901 305.723C138.797 300.499 138.952 295.283 139.698 290.212C140.382 285.561 141.676 280.348 143.35 276.123C144.042 274.376 144.839 272.262 145.664 270.579C146.39 269.096 147.954 265.551 149.234 264.857C150.727 264.048 152.151 265.148 152.219 267.284ZM292.194 190.537C296.308 195.057 299.567 201.218 302.309 206.827C304.794 211.909 307.269 217.535 308.863 222.989C309.276 223.881 309.62 224.8 309.927 225.734L310.178 226.588C309.974 225.894 309.769 225.199 309.565 224.506C310.022 225.114 310.265 225.782 310.184 226.542C310.603 227.911 310.966 229.301 311.373 230.675C311.961 232.661 313.597 236.581 312.984 238.644C312.048 241.789 310.054 237.311 309.543 236.076C308.265 232.985 307.208 229.783 305.985 226.667C301.699 215.745 296.562 203.803 289.603 194.568C288.942 193.692 287.726 191.752 286.836 191.265C286.205 190.921 286.013 191.578 285.194 190.886C284.34 190.166 281.873 185.174 282.533 183.846C283.915 181.063 290.77 188.972 292.194 190.537ZM133.396 269.411C137.07 270.868 128.193 280.07 127.094 281.592C125.13 284.312 123.156 286.973 121.284 289.784C119.318 292.737 117.626 296.065 115.527 298.855C110.647 295.251 118.057 285.407 120.28 282.783C122.538 280.116 124.583 277.248 127.036 274.816C128.209 273.654 131.534 268.671 133.396 269.411ZM217.029 244.83C216.487 245.116 215.633 246.281 215.149 246.686C210.385 250.675 204.404 253.744 200.369 258.543C196.973 259.661 194.131 263.182 191.21 265.315C190.051 266.163 187.588 267.419 186.772 268.633C185.858 269.994 187.714 273.829 188.276 275.605C189.664 272.6 192.31 272.288 195.08 271.257C198.976 269.807 202.763 268.105 206.616 266.594C210.702 264.991 214.543 262.941 218.744 261.632C222.882 260.343 226.605 258.054 230.967 257.697C229.226 254.662 225.568 251.979 223.134 249.682C221.635 248.267 220.24 246.303 218.65 245.055C217.442 244.107 218.126 244.248 217.029 244.83ZM194.843 271.325L193.445 271.797C193.768 271.211 194.272 271.164 194.843 271.325ZM307.004 192.307C311.138 198.379 315.068 204.337 317.468 211.489C318.299 213.967 319.603 217.879 319.428 220.46C319.136 224.754 316.716 221.803 315.946 219.162C313.366 212.726 310.593 206.304 307.328 200.218C305.81 197.387 303.357 193.979 302.82 190.717C302.032 185.92 306.085 190.957 307.004 192.307ZM315.946 219.162C316.135 219.811 316.324 220.46 316.512 221.107C316.322 220.457 316.134 219.81 315.946 219.162ZM323.958 200.785C325.247 202.586 327.883 207.017 327.427 209.334C326.819 212.426 324.805 209.814 323.784 208.055C322.177 205.285 321.245 202.173 319.372 199.594C319.682 195.48 322.326 198.504 323.958 200.785ZM117.578 263.033C118.246 265.14 115.702 266.656 114.493 267.998C113.603 268.986 112.915 271.268 111.742 269.994C109.771 267.851 116.134 263.49 117.578 263.033ZM134.348 116.738C136.983 120.7 139.48 125.413 140.415 130.206C140.895 132.669 140.878 135.234 140.911 137.702C140.931 139.225 140.214 143.113 141.166 144.472C142.97 143.379 146.433 143.154 147.612 141.38C148.953 139.363 147.832 136.392 150.604 135.292C154.858 133.604 159.795 137.015 161.702 141.983C162.689 144.554 161.917 147.848 160.731 149.926C160.092 151.047 159.318 151.583 158.491 152.42C157.942 152.976 157.743 153.023 157.694 153.019L157.692 153.018L157.696 153.021C157.738 153.056 157.851 153.245 157.807 154.107C157.752 155.179 158.335 156.665 158.553 157.722C158.874 159.272 158.952 161.309 159.59 162.734C160.276 164.27 160.27 164.458 161.565 163.423C163.054 162.234 164.36 158.803 165.165 156.923C165.955 155.079 166.208 151.581 168.789 153.499C170.769 154.97 172.281 159.756 172.819 162.187C174.07 167.835 170.139 174.006 167.223 177.8C165.167 180.475 165.927 181.56 167.192 184.979C168.218 187.754 169.495 190.473 170.7 193.166C172.155 196.419 173.098 196.178 173.722 193.226C174.199 190.966 174.979 187.265 177.655 187.627C180.312 187.987 181.224 191.557 182.467 193.687C184.207 196.668 184.739 199.157 183.149 202.241C182.426 203.642 179.561 206.457 179.817 208.276C179.942 209.16 182.429 211.262 183.108 212.035C184.527 213.649 185.978 215.226 187.59 216.586C187.048 213.615 188.418 210.517 189.034 207.817C189.776 204.556 191.137 201.996 192.82 199.269C193.437 198.271 195.264 196.613 193.861 195.663C192.644 194.837 191.996 195.937 190.576 194.444C188.197 191.944 186.482 187.246 185.314 183.95C184.271 181.005 182.856 176.859 183.55 173.8C184.396 170.075 186.201 169.372 189.382 169.838C191.866 170.202 194.281 173.908 196.2 175.97C199.445 179.454 200.586 182.925 202.022 187.462C203.67 185.426 205.788 184.172 207.777 182.645C209.15 181.591 211.77 180.36 212.526 178.627C210.993 178.209 209.75 176.642 209.482 174.875C209.042 171.98 210.632 172.797 212.311 171.865C213.064 171.447 213.421 170.552 214.187 170.16C214.971 169.759 215.984 169.863 216.855 169.751C219.001 169.476 221.156 169.41 223.296 169.164C221.618 167.768 219.731 165.742 217.715 165.653C215.286 165.546 212.627 166.246 210.142 166.301C206.939 166.372 200.16 162.531 203.391 157.81C204.611 156.026 207.254 156.961 208.252 154.772C209.198 152.696 207.705 149.476 207.407 147.178C206.722 141.881 207.846 136.543 211.397 133.291C213.39 134.622 210.717 140.307 210.74 142.295C210.754 143.48 210.465 143.441 211.088 144.23C211.52 144.78 212.896 145.121 213.545 145.44L214.089 145.707C215.54 146.416 217.002 147.091 218.541 147.398C217.681 145.207 216.851 142.334 218.676 140.677C220.243 139.253 223.296 140.723 224.53 142.508C224.818 141.259 225.335 138.859 224.912 137.522C225.185 136.341 224.78 135.909 223.694 136.225C223.169 136.148 222.644 136.103 222.12 136.09C219.823 135.803 217.972 135.255 216.505 132.865C215.409 131.08 214.659 129.081 213.486 127.346C213.465 126.258 212.966 125.73 211.989 125.763C211.635 125.616 211.28 125.47 210.926 125.322C209.747 124.819 208.527 124.283 207.382 123.665C206.481 123.178 205.387 121.922 204.532 121.599C204.259 121.272 203.946 121.008 203.594 120.808C203.125 121.437 202.654 122.061 202.178 122.683C200.541 124.866 198.948 126.848 196.308 127.424C194.246 127.874 191.023 128.012 188.879 127.731C186.537 127.424 184.275 125.158 182.39 123.58C179.901 127.671 176.536 126.965 173.789 122.71C172.563 120.811 171.547 118.709 170.698 116.59C170.005 114.858 169.96 113.144 168.493 112.545C166.66 111.798 163.454 112.737 161.641 112.957C159.652 113.199 157.238 113.269 155.433 114.209C157.437 117.628 160.03 121.478 158.601 125.208C157.19 128.894 156.487 130.772 152.422 128.548C149.313 126.846 146.332 124.121 143.656 121.601C142.253 120.279 141.193 118.312 139.807 117.078C138.211 115.657 136.199 116.497 134.348 116.738ZM131.632 118.419C130.852 118.647 129.142 119.632 128.431 120.055C126.496 121.205 124.546 122.259 122.487 123.361C117.87 125.83 113.363 128.561 108.804 131.132C104.621 133.492 100.056 136.35 96.4278 139.694C92.4626 143.348 88.6147 146.899 85.0574 151.068C81.4902 155.249 78.8173 160.071 75.5367 164.476C69.3867 172.733 63.1922 181.184 57.3076 189.747C53.5649 195.193 49.3251 200.224 45.8015 205.841C43.986 208.734 42.2664 211.701 40.6246 214.734C39.416 216.966 36.9902 220.282 37.4161 223.236C39.7487 222.497 41.3948 216.729 42.824 214.634C43.8648 213.109 45.1369 211.739 46.2628 210.294C46.9089 209.464 48.6117 205.67 49.5051 205.37C50.7936 204.938 51.6687 207.044 51.6558 208.125C51.6389 209.526 50.7349 210.959 50.203 212.127C48.4692 215.936 47.4876 220.537 46.9035 224.866C49.7263 222.425 50.9753 216.952 52.3627 213.259C53.096 211.307 57.2374 202.579 58.8128 209.106C59.3959 211.521 58.5104 213.788 58.1132 216.064C57.6837 218.525 57.2311 221.028 56.9608 223.532C56.4111 228.618 56.3817 233.679 56.7416 238.889C58.4775 237.309 58.1796 234.521 58.4789 232.17C58.7837 229.777 59.2746 227.402 59.7245 225.055C60.679 220.073 61.2619 214.967 62.3911 210.043C62.8366 208.097 64.4041 198.065 66.5233 198.739C67.9504 199.192 69.521 202.954 70.3013 204.202C71.5359 206.177 73.1025 208.159 75.2566 208.549C73.9511 204.131 72.4341 199.786 71.1076 195.388C70.0641 191.926 71.3465 190.437 72.5957 187.395C75.4922 180.34 80.3148 174.854 84.5167 168.894C86.3868 166.242 87.8955 163.083 90.1221 160.662C92.6262 157.941 94.9578 154.977 97.3233 152.067C102.363 145.869 109.026 142.059 116.533 140.602L116.546 140.6C115.949 140.715 115.353 140.831 114.757 140.946C115.349 140.831 115.942 140.717 116.534 140.602C116.537 140.601 116.542 140.6 116.546 140.599C123.057 137.299 131.252 136.418 138.562 137.539C138.179 131.515 136.834 125.472 133.925 120.085C133.072 118.505 132.981 118.028 131.632 118.419ZM220.383 182.397C220.097 182.508 219.812 182.618 219.522 182.73C219.806 182.619 220.094 182.508 220.383 182.397ZM328.667 46.0686C327.34 48.8166 325.282 51.3989 323.635 53.8608C322.122 56.1214 320.821 58.561 319.333 60.8129C315.467 66.6634 312.293 73.1396 308.686 79.2476C301.912 90.7193 294.477 101.49 285.527 110.826C281.307 115.228 276.825 119.316 272.339 123.363C267.966 127.306 264.159 132.014 258.521 133.825C255.629 134.753 252.603 135.812 249.565 136.212C246.29 136.642 242.368 135.493 239.058 134.86C237.502 134.562 235.929 134.307 234.386 133.876C232.968 133.479 230.761 132.016 229.439 132.155C226.452 132.469 228.299 139.301 228.319 141.885C228.325 142.763 227.932 144.423 228.172 145.212C228.621 146.694 228.189 146.001 229.618 146.599C231.169 147.249 233.129 147.556 234.746 147.942C237.803 148.672 240.98 149.18 244.033 149.625C247.304 150.102 250.331 150.141 253.523 149.559C254.901 149.307 256.165 148.956 257.422 148.571L257.375 148.617C257.842 148.154 258.334 147.765 259.05 148.05L258.631 148.191C259.549 147.9 260.48 147.601 261.465 147.319C260.973 147.46 260.481 147.6 259.989 147.741C260.396 147.31 260.867 147.098 261.465 147.319C268.345 144.125 273.114 137.307 279.035 132.603C285.07 127.809 291.005 121.786 296.274 115.77C301.277 110.058 306.269 104.269 311.54 98.817C314.564 95.6891 317.15 90.3752 321.812 90.5982C323.962 90.7009 326.121 91.5466 328.269 91.3978C330.74 91.2263 332.996 90.6164 335.52 90.6948C334.987 89.5046 331.406 88.598 330.307 87.5355C329.574 86.8266 329.201 85.8757 328.55 85.1533C327.955 84.4927 327.392 84.5991 326.967 83.7327C325.331 80.396 329.095 75.1649 330.34 72.6214C334.308 64.5093 339.717 57.323 343.609 49.0463C340.043 50.1751 337.424 56.8696 335.525 60.1488C334.249 62.3544 332.99 64.5572 331.567 66.6383C331.177 67.2085 329.455 70.1242 328.718 70.0918C326.652 70.0018 327.219 65.6629 327.622 64.6044C328.41 62.5321 329.757 60.6402 330.821 58.7631C333.061 54.8117 334.965 50.7515 336.51 46.2828C333.914 47.3091 331.882 53.6013 330.65 56.2338C329.303 59.1105 327.545 62.9915 325.248 65.0042C324.062 66.0436 323.326 66.0948 322.605 64.1729C321.782 61.9814 322.893 60.3382 323.757 58.6123C325.479 55.1709 328.411 50.1941 328.667 46.0686ZM195.36 151.374C196.877 154.933 196.001 160.209 192.579 161.46C188.911 162.798 187.08 157.762 186.231 154.62C185.776 152.933 185.291 152.007 185.908 150.546C186.164 149.941 187.087 149.424 187.425 148.811C187.86 148.022 188.006 147.027 188.422 146.217C190.566 142.042 194.803 148.31 195.36 151.374ZM173.317 130.448C174.794 130.941 176.813 132.767 177.846 134.031C179.678 136.274 181.257 138.475 182.639 141.072C183.018 144.215 183.035 152.771 178.554 152.16C173.902 151.527 171.898 145.549 170.594 141.492C169.645 138.537 168.062 128.692 173.317 130.448ZM204.151 135.708C205.065 138.388 203.017 142.273 201.55 143.993C199.162 146.793 197.086 142.327 196.488 139.745C195.818 136.86 196.292 134.996 198.128 133.098C200.855 130.278 202.431 132.66 204.151 135.708ZM157.687 153.015C157.679 153.011 157.678 153.016 157.689 153.018L157.692 153.018L157.687 153.015ZM183.957 94.7303C182.982 95.4894 182.105 98.4972 181.575 99.7559C181.247 100.534 180.947 102.698 180.237 103.042C179.181 103.554 179.088 102.911 178.002 102.094C173.909 99.0179 170.915 99.9814 170.814 105.32C171.937 105.569 172.973 105.352 173.998 104.981C174.346 104.856 175.55 103.953 175.875 104.073C177.711 104.749 175.864 106.42 175.753 107.1C175.669 107.615 175.684 108.045 175.708 108.427C175.822 108.74 175.935 109.053 176.048 109.368C175.887 108.925 175.726 108.479 175.566 108.033L175.708 108.43C175.767 109.359 175.877 110.005 174.722 110.909C173.591 111.795 172.381 111.716 170.956 111.651C172.049 114.539 173.7 119.78 176.224 121.637L176.362 121.734C176.943 121.843 177.523 121.951 178.103 122.06C178.038 122.088 177.972 122.113 177.906 122.135C178.766 121.884 179.64 121.116 180.199 120.773C179.474 119.396 176.48 114.895 176.79 113.633C177.376 111.246 178.854 114.059 179.585 115.312C181.306 118.261 184.184 121.938 187.267 123.157C187.229 123.121 187.191 123.079 187.154 123.033C187.776 122.969 188.412 122.801 188.948 123.484C188.746 123.454 188.539 123.468 188.333 123.475L188.334 123.475C191.066 124.012 196.098 124.752 197.979 122.589C200.581 119.596 202.15 115.508 204.007 111.91C201.787 111.419 200.998 109.817 201.898 107.593C206.219 110.493 205.477 101.571 205.667 98.7165C203.702 99.1225 202.419 101.003 200.328 101.163C198.625 101.293 196.505 101.245 194.816 100.632C192.559 99.8122 190.33 98.3027 188.218 97.0528C186.953 96.3046 184.842 94.0403 183.957 94.7303ZM135.625 140.594C135.847 140.99 136.064 141.377 136.281 141.764C136.437 140.451 136.437 140.451 135.625 140.594ZM195.278 120.947C194.475 121.091 191.215 121.42 192.857 119.766C193.694 118.921 195.031 119.837 195.278 120.947ZM200.389 105.144C201.19 106.186 200.151 108.836 199.993 110C199.745 111.824 200.537 118.871 198.207 118.869C195.877 119.599 195.441 116.883 196.321 115.215C196.628 114.633 197.11 114.458 197.374 113.756C197.604 113.146 197.533 112.093 197.599 111.415C197.763 109.753 197.793 107.879 198.412 106.386C198.91 105.186 199.425 103.89 200.389 105.144ZM188.636 107.124C189.815 106.92 189.278 107.785 190.036 108.164C190.543 108.417 190.661 108.584 190.656 108.68L190.654 108.691L190.682 108.68C190.833 108.621 191.117 108.538 191.624 108.437C192.736 108.214 195.686 106.039 194.372 109.192C194.086 109.879 191.814 112.263 191.092 112.111C189.482 111.774 189.07 108.455 188.636 107.124ZM190.654 108.691C190.388 108.803 190.63 108.818 190.654 108.694L190.654 108.691ZM100.339 136.892C100.049 136.994 99.7581 137.097 99.4638 137.2C99.753 137.097 100.046 136.995 100.339 136.892ZM142.16 110.681C142.65 110.605 143.139 110.529 143.627 110.453C143.138 110.529 142.649 110.605 142.16 110.681Z" fill="#2D3D8B"/>
</g>
<defs>
<clipPath id="clip0_135_40">
<rect width="399.97" height="350.981" fill="white" transform="translate(0 120.712) rotate(-17.5659)"/>
</clipPath>
</defs>
</svg>
