<svg width="125" height="124" viewBox="0 0 125 124" fill="none" xmlns="http://www.w3.org/2000/svg">
<path d="M118.675 108.369H6.24609V58.4006L62.4607 5.30902L118.675 58.4006V108.369Z" fill="#E8EAF6"/>
<path d="M109.307 52.1545L93.6914 36.5393V14.6781H109.307V52.1545Z" fill="#C5CAE9"/>
<path d="M6.24609 108.369H118.675V123.984H6.24609V108.369Z" fill="#C5CAE9"/>
<path d="M62.4607 0L0 58.0884L6.24607 64.9591L62.4607 12.8044L118.675 64.9591L124.921 58.0884L62.4607 0Z" fill="#B71C1C"/>
<path d="M43.7227 74.0158H81.1991V123.984H43.7227V74.0158Z" fill="#D84315"/>
<path d="M53.0918 39.6624H71.83V58.4006H53.0918V39.6624Z" fill="#01579B"/>
<path d="M73.3916 97.4385C72.4547 97.4385 71.8301 98.0631 71.8301 99.0001V105.246C71.8301 106.183 72.4547 106.808 73.3916 106.808C74.3285 106.808 74.9531 106.183 74.9531 105.246V99.0001C74.9531 98.0631 74.3285 97.4385 73.3916 97.4385Z" fill="#FF8A65"/>
</svg>
