<svg width="531" height="584" viewBox="0 0 531 584" fill="none" xmlns="http://www.w3.org/2000/svg">
<path fill-rule="evenodd" clip-rule="evenodd" d="M365.391 152.666C364.981 149.109 376.697 149.545 378.375 153.579C380.387 157.271 366.347 155.837 365.391 152.666ZM356.71 158.941C358.468 158.09 359.799 157.657 361.128 160.044C358.439 168.314 349.2 158.626 356.71 158.941ZM334.466 154.77C335.798 151.484 341.917 149.982 343.174 154.286C342.16 155.436 340.908 156.27 340.635 158.252C338.818 163.939 330.8 160.529 334.466 154.77ZM348.026 167.201C352.582 167.357 357.566 170.728 361.914 173.856C358.676 176.876 349.849 170.436 348.026 167.201ZM327.775 172.298C325.904 174.659 320.28 174.189 319.216 170.092C319.23 166.365 325.96 163.588 329.691 165.921C333.299 168.416 330.279 170.188 327.775 172.298ZM291.834 163.264C293.708 161.885 304.379 163.856 305.049 166.967C305.02 170.545 292.216 166.828 291.834 163.264ZM293.133 181.999C287.903 176.181 302.962 177.152 305.628 180.829C306.623 184.774 296.159 184.201 293.133 181.999ZM272.81 166.731C279.252 166.724 279.104 173.364 278.648 177.393C276.249 185.866 268.195 167.589 272.81 166.731ZM261.093 179.849C255.496 178.8 250.16 169.131 258.055 174.182C259.256 176.228 269.851 182.123 261.093 179.849ZM246.309 180.033C242.088 177.602 242.202 173.123 248.168 177.367C251.118 180.065 251.394 182.64 246.309 180.033ZM229.015 168.34C230.93 168.949 232.527 169.889 232.136 171.83C231.267 189.175 220.869 166.873 229.015 168.34ZM211.477 165.553C214.696 164.145 222.748 166.905 216.647 169.284C213.727 171.744 211.602 173.986 208.584 176.903C198.428 179.864 205.536 166.034 211.477 165.553ZM275.207 225.821C266.645 224.536 272.324 218.667 275.725 216.47C283.233 214.441 278.708 224.468 275.207 225.821ZM214.929 188.039C213.357 189.629 210.736 190.477 209.558 193.079C196.892 190.498 209.902 180.57 214.929 188.039ZM218.368 196.451C217.618 191.177 229.763 201.508 230.782 204.069C234.373 213.253 219.87 199.008 218.368 196.451ZM318.021 216.602C324.427 222.073 327.825 229.382 317.285 220.74C313.203 217.909 311.596 210.961 318.021 216.602ZM191.38 199.032C186.38 194.008 183.216 188.939 178.451 183.395C182.11 182.778 186.681 184.765 189.041 188.519C190.416 190.811 199.886 203.676 191.38 199.032ZM210.967 210.339C213.394 212.627 217.779 212.26 219.332 214.531C216.222 221.413 195.707 204.674 210.967 210.339ZM157.712 196.509C159.46 193.714 163.412 184.828 167.44 190.188C166.072 193.636 160.789 206.228 157.712 196.509ZM171.047 202.888C173.266 201.653 178.859 201.222 180.219 204.484C179.345 207.979 171.492 206.984 171.047 202.888ZM215.939 230.386C217.507 231.757 225.734 235.98 222.874 238.134C215.455 236.622 203.38 226.101 217.562 228.314C217.054 228.963 216.563 229.59 215.939 230.386ZM197.618 221.241C199.339 221.626 201.473 225.574 198.589 225.347C196.384 225.319 192.633 219.895 197.618 221.241ZM167.836 216.93C174.358 217.18 179.761 213.993 186.633 213.243C197.189 214.807 184.139 220.922 179.985 220.959C177.131 221.58 166.759 221.715 167.836 216.93ZM201.289 248.88C199.822 244.295 197.326 234.553 204.641 242.992C206.529 245.923 206.881 253.956 201.289 248.88ZM190.885 235.305C186.536 236.961 189.275 241.282 187.83 244.55C179.376 243.709 183.193 228.064 190.885 235.305ZM160.602 238.782C163.739 237.513 172.188 235.121 174.06 239.213C171.204 241.354 162.371 243.266 160.602 238.782ZM214.082 293.431C211.931 291.787 212.932 288.297 216.075 291.63C218.023 291.617 220.976 290.76 223.353 292.94C226.32 297.393 216.346 297.136 214.082 293.431ZM195.234 283.083C200.714 279.856 201.346 285.712 199.278 289.359C194.823 289.691 192.316 285.853 195.234 283.083ZM136.506 245.695C127.564 246.466 138.365 232.66 142.934 237.574C140.173 239.458 139.522 243.357 136.506 245.695ZM337.733 143.211C323.922 144.866 312.635 150.653 298.682 151.821C248.63 154.96 266.237 154.579 258.16 164.898C253.999 165.675 252.954 161.154 255.665 158.625C222.849 155.377 205.384 163.109 181.554 165.834C177.98 165.652 183.903 172.493 177.723 171.974C174.164 172.053 175.6 167.035 172.666 167.364C159.461 168.452 164.662 168.046 166.102 177.582C162.151 177.662 160.703 174.688 159.855 171.178C157.633 175.784 154.767 172.379 152.279 174.534C148.162 185.507 148.182 197.562 142.618 207.596C141.916 211.994 150.749 218.134 153.751 222.004C153.662 226.214 141.683 217.58 140.541 215.046C140.099 215.74 135.768 216.506 134.434 219.914C111.715 252.933 103.492 255.841 136.424 258.382C142.258 260.114 142.092 252.402 147.255 252.662C149.694 253.308 148.899 254.958 147.67 256.513C148.162 256.503 148.653 256.495 149.144 256.485C151.073 263.521 160.513 258.245 166.1 259.258C170.672 259.332 177.978 263.005 177.195 256.779C180.309 257.833 179.744 253.18 181.525 251.411C185.103 250.51 185.85 255.268 184.903 257.582C188.104 257.084 187.902 260.616 190.958 261.93C197.465 262.263 220.07 270.435 207.132 274.36C201.345 274.784 201.895 270.1 204.977 267.315C203.232 265.882 200.107 264.872 197.47 264.212C198.226 267.683 196.582 271.497 192.096 266.076C190.751 270.754 188.99 276.147 186.185 280.707C195.298 282.598 188.235 287.344 182.777 286.382C181.464 287.531 179.193 290.506 177.826 292.441C184.924 294.939 195.132 296.297 203.108 299.067C202.131 295.903 207.852 294.406 208.818 297.354C208.701 299.8 208.515 301.443 208.261 302.282C215.581 304.242 252.495 327.216 243.903 319.244C239.848 316.093 238.1 308.957 234.234 309.453C226.771 311.233 227.708 303.19 233.876 304.879C231.008 298.048 231.081 290.272 225.767 283.648C228.826 282.327 227.144 279.641 224.509 276.24C227.59 276.803 229.794 273.054 227.522 270.141C225.693 267.781 223.586 268.603 223.695 264.96C223.814 261.357 219.453 260.277 217.261 256.449C216.861 254.112 221.993 256.112 223.267 258.032C224.486 257.268 222.401 253.895 224.617 253.714C231.042 248.727 232.803 239.446 235.908 232.141C236.853 229.133 253.705 231.221 258.514 231.163C251.936 218.3 260.722 221.777 262.972 230.34C271.695 229.822 283.737 229.701 293.282 229.748C288.809 227.743 285.755 218.456 290.616 220.833C294.749 228.486 307.956 228.503 314.501 229.148C318.252 229.373 322.354 230.147 326.161 231.16C327.129 225.782 327.582 218.065 326.744 211.608C323.281 212.832 321.925 209.015 325.129 206.941C322.73 207.312 321.985 204.409 318.952 203.373C313.843 202.299 310.415 204.365 307.161 206.861C311.48 217.293 293.873 218.161 304.117 206.789C298.581 206.747 288.932 206.226 284.737 209.06C283.493 213.754 276.203 215.734 277.412 208.809C270.048 209.643 270.537 205.779 266.155 205.756C262.693 205.701 258.428 207.684 254.278 206.418C250.819 204.31 244.755 204.566 246.677 199.784C246.072 201.585 231.864 191.289 238.98 192.51C241.874 192.448 248.116 200.209 247.686 195.33C253.765 197.964 254.012 196.021 257.214 194.089C259.372 193.972 261.956 194.087 264.698 193.938C260.807 187.731 266.165 181.191 271.289 188.385C269.733 188.579 269.849 189.765 270.034 191.798C287.055 189.576 302.371 191.106 313.818 187.55C325.265 183.994 336.972 183.097 348.131 178.639C360.593 182.17 362.624 185.676 370.751 177.533C375.479 177.941 379.027 179.751 379.141 175.578C380.14 175.692 381.44 175.385 383.201 175.469C380.408 173.5 373.565 161.758 381.367 165.539C382.837 168.879 386.849 173.692 388.555 177.156C392.625 177.929 398.124 178.269 402.703 180.583C401.14 174.076 398.037 165.745 397.218 159.575C395.164 158.625 393.523 157.246 391.903 155.123C401.614 158.423 394.239 153.547 397.842 150.666C399.478 150.232 399.473 148.113 400.09 146.596C398.729 145.258 397.266 142.601 394.185 142.901C371.796 137.192 355.393 143.308 337.733 143.211Z" fill="#9C0120"/>
<path fill-rule="evenodd" clip-rule="evenodd" d="M364.401 223.233C363.978 221.636 359.757 221.112 357.335 219.603C348.963 213.841 371.249 220.082 372.945 214.347C369.147 214.72 362.22 211.577 362.412 215.716C361.89 211.474 353.37 211.003 352.526 205.876C350.452 207.073 341.803 206.629 344.344 210.353C341.175 210.243 338.195 210.141 335.006 210.031C336.324 213.158 332.414 218.348 336.186 220.778C338.301 221.686 341.856 220.783 341.996 223.926C347.308 225.786 353.92 228.901 360.013 228.572C345.844 220.221 355.368 222.123 364.401 223.233ZM403.721 162.418C408.187 161.638 422.897 159.017 423.242 162.372C422.468 166.23 426.72 167.247 430.319 170.013C426.405 161.752 437.595 169.267 441.651 170.146C447.256 171.84 451.806 170.891 457.628 170.448C429.056 161.478 447.535 165.199 460.387 161.424C456.288 159.728 451.258 159.721 446.7 160.274C432.911 157.191 460.426 156.973 461.093 153.152C458.095 152.904 454.091 150.236 450.958 151.34C444.288 154.387 435.856 153.428 427.331 151.867C420.743 154.39 411.864 148.66 403.125 148.47C401.875 151.732 403.444 157.91 403.721 162.418ZM311.6 393.219C307.301 389.668 302.411 385.331 297.861 381.399C286.854 376.476 277.01 371.357 266.013 365.385C246.547 356.685 241.653 349.663 231.325 363.753C230.151 365.37 235.913 368.187 237.916 370.142C239.015 372.599 241.125 373.061 242.948 375.341C244.265 377.481 248.43 376.823 251.379 377.827C271.859 380.836 289.459 392.976 310.026 396.942C308.147 395.576 308.999 393.745 311.6 393.219ZM180.067 167.162C174.543 167.729 167.952 168.239 161.945 169.303C152.968 178.137 151.467 191.662 148.093 204.337C142.331 222.696 127.422 243.202 114.928 252.012C125.188 258.662 137.857 256.509 149.363 257.049C174.91 256.803 204.947 255.493 224.765 274.492C215.729 227.237 249.556 221.47 247.156 189.948C249.563 189.909 250.64 191.613 252.939 193.63C261.8 193.439 271.554 192.179 280.516 190.261C327.196 183.82 367.529 166.076 400.571 178.727C398.496 166.918 393.179 152.83 399.858 146.894C361.09 140.194 325.979 154.833 288.897 158.075C278.433 158.892 269.184 159.372 258.169 159.267C222.789 155.477 204.546 164.477 180.067 167.162ZM222.07 104.408C216.495 110.684 215.694 111.992 206.835 113.545C212.93 119.873 199.645 121.936 215.63 126.536C217.571 132.864 209.096 128.945 206.335 125.375C199.542 136.468 218.196 135.608 225.93 138.078C228.408 143.251 219.271 142.33 215.517 140.825C214.435 146.081 212.433 151.128 210.846 156.699C269.868 145.265 248.389 164.429 248.771 137.635C248.426 135.875 245.314 135.346 245.061 132.499C244.983 131.387 245.867 130.865 247.617 131.378C262.735 137.832 257.217 122.281 246.486 125.95C244.259 124.51 247.643 121.883 244.711 120.5C234.233 114.03 230.398 102.292 226.709 91.9599C225.97 92.6823 225.379 93.2597 224.77 93.8537C225.483 93.7391 226.064 93.6464 226.785 93.5307C227.167 96.1627 225.328 97.6466 225.36 99.7266C229.047 102.607 230.073 104.904 228.395 107.001C226.761 105.534 225.154 104.089 223.498 102.601C223.364 102.725 222.637 103.41 222.07 104.408ZM185.979 281.251C184.359 284.914 181.627 287.924 179.309 291.82C210.499 298.063 222.799 309.322 243.46 319.954C230.498 307.402 232.71 294.073 222.39 281.794C216.239 273.842 208.562 268.307 198.386 265.053C196.36 264.389 193.199 263.788 192.936 266.421C192.129 272.029 188.809 276.24 185.979 281.251ZM178.606 279.446C182.211 274.691 185.916 269.484 188.235 263.232C179.915 262.228 172.049 261.443 163.336 261.727C111.074 263.05 125.526 251.19 116.87 265.808C137.081 266.852 156.305 275.348 173.804 287.143L178.606 279.446ZM300.448 227.395C329.429 225.662 324.928 237.88 326.792 216.67C325.45 213.44 329.129 207.196 323.863 207.152C307.775 205.742 293.16 207.718 277.208 209.244C251.624 209.392 254.897 204.303 251.426 214.361C249.51 220.036 245.433 223.582 243.444 229.697C262.113 229.544 281.164 227.635 300.448 227.395ZM210.957 142.419C211.109 141.948 211.26 141.477 211.382 141.1C194.468 135.532 201.423 124.764 204.421 116.15C202.841 114.225 201.263 112.708 202.77 110.132C211.619 106.45 211.957 109.072 218.488 100.987C220.279 99.0487 221.922 98.121 223.531 95.4762C223.257 94.0955 222.533 92.6087 223.251 90.9926C228.131 80.8806 241.737 77.4157 254.36 81.3038C262.283 83.1622 267.831 89.7107 273.06 95.763C285.462 99.2339 301.265 73.374 311.861 93.5732C328.805 85.6786 347.733 79.3459 368.446 78.1281C379.097 77.8321 400.521 81.8562 393.535 94.9296C392.355 96.5987 391.632 100.222 394.844 102.272C400.568 105.199 405.661 103.506 412.077 105.21C464.326 114.5 416.418 136.123 396.68 142.344C398.723 142.944 401.525 143.602 403.862 144.387C404.558 145.44 404.306 145.706 406.598 145.412C415.445 144.789 422.966 148.546 432.029 147.918C440.113 149.747 458.231 139.006 459.751 149.795C470.215 152.584 467.588 155.849 459.812 158.037C472.344 160.864 465.164 164.553 457.671 166.096C490.376 177.127 449.87 180.075 438.879 173.959C441.794 184.466 431.055 178.438 425.901 173.893C424.01 172.965 423.445 169.939 421.201 171.013C419.388 166.92 412.953 165.203 408.067 165.528C399.097 163.426 408.002 178.682 403.626 182.617C394.536 182.832 383.127 181.016 372.513 180.464C383.223 191.139 382.881 202.894 365.669 200.771C352.549 197.415 341.613 189.175 327.998 190.143C308.562 189.596 291.057 193.558 272.28 196.31C250.86 199.041 253.568 191.338 254.038 205.269C278.363 205.68 301.838 196.7 327.315 202.786C330.143 204.153 332.199 205.492 335.528 204.982C341.463 206.072 345.237 203.889 350.403 202.468C355.353 201.508 362.122 203.794 357.837 208.941C365.032 210.853 372.61 208.862 380.033 211.09C390.999 214.819 371.844 220.802 368.078 220.899C375.591 224.755 374.106 227.235 365.982 226.616C378.351 233.287 359.538 232.422 354.871 230.852C348.12 229.471 343.032 225.39 336.05 224.87C332.623 224.458 333.417 233.028 331.879 235.107C329.698 237.488 321.255 241.33 323.677 234.328C296.405 230.824 270.112 237.175 242.382 232.462C230.741 242.739 231.365 264.242 234.169 280.87C245.257 326.451 260.463 322.989 248.496 325.928C230.897 324.744 217.672 309.475 200.87 303.102C195.279 300.766 186.947 297.814 181.567 297.841C181.045 298.91 180.977 299.797 179.013 299.367C175.765 298.022 175.501 299.355 175.32 302.422C174.617 307.753 174.27 311.764 171.769 316.638C157.879 338.393 141.931 357.772 125.433 378.136C153.521 368.923 174.847 370.866 196.497 366.33C221.478 362.333 218.558 355.88 226.618 362.32C231.335 359.893 233.228 349.01 242.294 351.484C266.622 357.898 288.005 373.313 311.499 383.855C308.366 387.245 325.364 392.861 316.932 396.141C327.626 407.606 293.739 397.713 290.341 395.93C276.227 390.15 262.735 383.562 247.769 379.722C248.426 381.722 252.78 385.26 249.299 387.036C240.065 392.568 229.843 396.912 219.268 401.31C194.183 413.673 166.915 421.867 137.35 425.23C120.948 427.258 102.381 432.435 86.0638 420.139C69.3642 407.387 80.6254 357.852 81.408 347.104C81.4981 330.097 97.7983 257.593 111.925 264.674C114.26 262.132 110.517 259.68 109.706 256.381C108.994 254.224 111.235 253.999 109.29 251.53C119.038 240.054 127.478 227.142 135.061 213.63C143.816 199.721 140.727 181.739 152.739 169.445C167.583 161.287 190.612 164.427 206.999 156.995C207.665 152.053 208.069 147.025 210.957 142.419Z" fill="black"/>
<path fill-rule="evenodd" clip-rule="evenodd" d="M234.626 498.61C247.804 509.379 246.905 512.318 250.412 525.745C256.419 540.564 259.454 556.264 268.205 570.85C260.958 545.787 276.32 525.81 268.968 512.263C265.046 505.545 258.548 501.482 251.7 496.579C237.933 484.672 242.777 491.519 234.626 498.61ZM232.549 500.403C229.725 500.584 233.202 503.103 230.556 503.941C222.676 500.731 216.061 493.83 208.407 488.853C183.834 470.428 161.349 450.87 143.826 426.272C199.974 415.47 181.409 408.485 202.834 435.333C207.684 444.334 214.555 451.287 221.926 459.461C229.598 468.123 235.107 476.895 246.405 482.69C248.579 484.592 243.257 485.539 246.352 487.291C255.128 493.605 264.222 498.797 271.821 506.896C277.209 513.468 279.174 520.887 276.728 528.18C274.005 544.797 270.446 559.86 276.319 578.285C269.762 594.192 250.217 550.542 250.163 545.095C240.06 519.928 242.713 509.379 232.549 500.403Z" fill="black"/>
<path fill-rule="evenodd" clip-rule="evenodd" d="M116.54 241.274C115.718 242.329 114.897 243.384 114.075 244.438C114.897 243.384 115.718 242.329 116.54 241.274Z" fill="black"/>
<path fill-rule="evenodd" clip-rule="evenodd" d="M169.285 320.612C169.737 319.912 170.19 319.213 170.639 318.518C170.185 319.22 169.735 319.917 169.285 320.612Z" fill="black"/>
<path fill-rule="evenodd" clip-rule="evenodd" d="M100.42 272.945C100.476 274.149 100.131 275.108 98.8858 275.514C99.3963 274.658 99.9077 273.802 100.42 272.945Z" fill="black"/>
<path fill-rule="evenodd" clip-rule="evenodd" d="M105.307 266.003C104.683 266.789 104.061 267.576 103.438 268.363C104.061 267.577 104.683 266.789 105.307 266.003Z" fill="black"/>
<path fill-rule="evenodd" clip-rule="evenodd" d="M216.73 102.196C216.091 102.973 215.453 103.751 214.815 104.528C215.454 103.75 216.092 102.974 216.73 102.196Z" fill="black"/>
<path fill-rule="evenodd" clip-rule="evenodd" d="M226.251 85.8039C225.7 86.4395 225.15 87.0752 224.599 87.7114C225.15 87.0752 225.7 86.4395 226.251 85.8039Z" fill="black"/>
<path fill-rule="evenodd" clip-rule="evenodd" d="M210.499 142.388C210.065 143.097 209.633 143.807 209.199 144.515L210.499 142.388Z" fill="black"/>
<path fill-rule="evenodd" clip-rule="evenodd" d="M97.6811 279.464C97.2494 280.174 96.8172 280.885 96.3858 281.595C96.2084 280.508 96.7433 279.861 97.6811 279.464Z" fill="black"/>
<path fill-rule="evenodd" clip-rule="evenodd" d="M286.002 370.408C285.122 369.929 284.242 369.449 283.364 368.969C284.245 369.45 285.123 369.93 286.002 370.408Z" fill="black"/>
<path fill-rule="evenodd" clip-rule="evenodd" d="M171.977 315.239C172.231 314.807 172.484 314.376 172.736 313.949C172.481 314.383 172.23 314.811 171.977 315.239Z" fill="black"/>
<path fill-rule="evenodd" clip-rule="evenodd" d="M466.311 155.061C466.575 154.637 466.842 154.212 467.105 153.794C466.841 154.221 466.576 154.641 466.311 155.061Z" fill="black"/>
<path fill-rule="evenodd" clip-rule="evenodd" d="M90.0479 299.974C89.8058 300.607 89.5627 301.239 89.3209 301.871C89.5634 301.238 89.8052 300.605 90.0479 299.974Z" fill="black"/>
<path fill-rule="evenodd" clip-rule="evenodd" d="M148.807 348.976C149.061 348.544 149.316 348.112 149.567 347.687C149.311 348.12 149.06 348.548 148.807 348.976Z" fill="black"/>
<path fill-rule="evenodd" clip-rule="evenodd" d="M147.897 175.418C147.527 176.026 147.155 176.633 146.783 177.24C147.155 176.632 147.526 176.025 147.897 175.418Z" fill="black"/>
<path fill-rule="evenodd" clip-rule="evenodd" d="M178.024 279.047C178.584 278.417 179.144 277.786 179.702 277.156C179.143 277.787 178.583 278.417 178.024 279.047Z" fill="black"/>
<path fill-rule="evenodd" clip-rule="evenodd" d="M222.478 102.844C222.203 103.263 221.927 103.682 221.657 104.096C221.935 103.676 222.206 103.26 222.478 102.844Z" fill="black"/>
<path fill-rule="evenodd" clip-rule="evenodd" d="M221.108 107.279C222.993 109.931 220.522 112.506 225.772 112.406C229.778 111.492 229.15 115.662 226.511 116.442C220.375 117.247 218.516 111.206 221.108 107.279Z" fill="black"/>
</svg>
