<svg xmlns="http://www.w3.org/2000/svg" width="1440" height="173" fill="none" viewBox="0 0 1440 173"><g filter="url(#filter0_d_75_36)"><path fill="url(#paint0_linear_75_36)" d="M1310.47 133.041C1501.39 102.995 1443.73 111.281 1443.73 111.281L1443.52 -5.06022L-25.654 0.407205C-25.654 0.407205 7.77401 219.524 82.4686 109.625C157.163 -0.273135 445.613 241.978 670.813 128.915C790.011 69.0704 882.683 208.501 998.498 148.772C1126.87 82.5657 1119.55 163.088 1310.47 133.041Z" shape-rendering="crispEdges"/><path stroke="url(#paint1_linear_75_36)" d="M1310.47 133.041C1501.39 102.995 1443.73 111.281 1443.73 111.281L1443.52 -5.06022L-25.654 0.407205C-25.654 0.407205 7.77401 219.524 82.4686 109.625C157.163 -0.273135 445.613 241.978 670.813 128.915C790.011 69.0704 882.683 208.501 998.498 148.772C1126.87 82.5657 1119.55 163.088 1310.47 133.041Z" shape-rendering="crispEdges"/></g><defs><filter id="filter0_d_75_36" width="1486.64" height="178.058" x="-30.235" y="-5.562" color-interpolation-filters="sRGB" filterUnits="userSpaceOnUse"><feFlood flood-opacity="0" result="BackgroundImageFix"/><feColorMatrix in="SourceAlpha" result="hardAlpha" type="matrix" values="0 0 0 0 0 0 0 0 0 0 0 0 0 0 0 0 0 0 127 0"/><feOffset dy="4"/><feGaussianBlur stdDeviation="2"/><feComposite in2="hardAlpha" operator="out"/><feColorMatrix type="matrix" values="0 0 0 0 0 0 0 0 0 0 0 0 0 0 0 0 0 0 0.25 0"/><feBlend in2="BackgroundImageFix" mode="normal" result="effect1_dropShadow_75_36"/><feBlend in="SourceGraphic" in2="effect1_dropShadow_75_36" mode="normal" result="shape"/></filter><linearGradient id="paint0_linear_75_36" x1="1426.06" x2="1229.08" y1="315.169" y2="-488.947" gradientUnits="userSpaceOnUse"><stop stop-color="#A771FF"/><stop offset=".469" stop-color="#FC5CFF" stop-opacity=".49"/><stop offset="1" stop-color="#FF4747" stop-opacity="0"/></linearGradient><linearGradient id="paint1_linear_75_36" x1="692.03" x2="732.062" y1="222.584" y2="-94.798" gradientUnits="userSpaceOnUse"><stop stop-color="#BBC889" stop-opacity=".792"/><stop offset=".724" stop-color="#F7EDDB"/><stop offset="1" stop-color="#BBC889" stop-opacity="0"/></linearGradient></defs></svg>