<svg width="1440" height="173" viewBox="0 0 1440 173" fill="none" xmlns="http://www.w3.org/2000/svg">
<g filter="url(#filter0_d_75_36)">
<path d="M1310.47 133.041C1501.39 102.995 1443.73 111.281 1443.73 111.281L1443.52 -5.06022L-25.654 0.407205C-25.654 0.407205 7.77401 219.524 82.4686 109.625C157.163 -0.273135 445.613 241.978 670.813 128.915C790.011 69.0704 882.683 208.501 998.498 148.772C1126.87 82.5657 1119.55 163.088 1310.47 133.041Z" fill="url(#paint0_linear_75_36)" shape-rendering="crispEdges"/>
<path d="M1310.47 133.041C1501.39 102.995 1443.73 111.281 1443.73 111.281L1443.52 -5.06022L-25.654 0.407205C-25.654 0.407205 7.77401 219.524 82.4686 109.625C157.163 -0.273135 445.613 241.978 670.813 128.915C790.011 69.0704 882.683 208.501 998.498 148.772C1126.87 82.5657 1119.55 163.088 1310.47 133.041Z" stroke="url(#paint1_linear_75_36)" shape-rendering="crispEdges"/>
</g>
<defs>
<filter id="filter0_d_75_36" x="-30.2354" y="-5.56207" width="1486.64" height="178.058" filterUnits="userSpaceOnUse" color-interpolation-filters="sRGB">
<feFlood flood-opacity="0" result="BackgroundImageFix"/>
<feColorMatrix in="SourceAlpha" type="matrix" values="0 0 0 0 0 0 0 0 0 0 0 0 0 0 0 0 0 0 127 0" result="hardAlpha"/>
<feOffset dy="4"/>
<feGaussianBlur stdDeviation="2"/>
<feComposite in2="hardAlpha" operator="out"/>
<feColorMatrix type="matrix" values="0 0 0 0 0 0 0 0 0 0 0 0 0 0 0 0 0 0 0.25 0"/>
<feBlend mode="normal" in2="BackgroundImageFix" result="effect1_dropShadow_75_36"/>
<feBlend mode="normal" in="SourceGraphic" in2="effect1_dropShadow_75_36" result="shape"/>
</filter>
<linearGradient id="paint0_linear_75_36" x1="1426.06" y1="315.169" x2="1229.08" y2="-488.947" gradientUnits="userSpaceOnUse">
<stop stop-color="#A771FF"/>
<stop offset="0.46875" stop-color="#FC5CFF" stop-opacity="0.49"/>
<stop offset="1" stop-color="#FF4747" stop-opacity="0"/>
</linearGradient>
<linearGradient id="paint1_linear_75_36" x1="692.03" y1="222.584" x2="732.062" y2="-94.7982" gradientUnits="userSpaceOnUse">
<stop stop-color="#BBC889" stop-opacity="0.791667"/>
<stop offset="0.723958" stop-color="#F7EDDB"/>
<stop offset="1" stop-color="#BBC889" stop-opacity="0"/>
</linearGradient>
</defs>
</svg>
