<svg xmlns="http://www.w3.org/2000/svg" width="141" height="141" fill="none" viewBox="0 0 141 141"><path fill="#000" d="M8.80566 70.4479C8.80566 82.6395 12.4209 94.5574 19.1942 104.694C25.9675 114.831 35.5947 122.732 46.8582 127.398C58.1218 132.063 70.516 133.284 82.4733 130.905C94.4307 128.527 105.414 122.656 114.035 114.035C122.656 105.415 128.527 94.431 130.905 82.4737C133.284 70.5163 132.063 58.1222 127.397 46.8586C122.732 35.595 114.831 25.9678 104.694 19.1945C94.557 12.4212 82.6392 8.806 70.4476 8.806C54.0991 8.806 38.4203 15.3004 26.8602 26.8605C15.3001 38.4206 8.80566 54.0995 8.80566 70.4479ZM35.2236 66.0449H88.72L64.1513 41.3556L70.4476 35.224L105.672 70.4479L70.4476 105.672L64.1513 99.3879L88.72 74.8509H35.2236V66.0449Z"/></svg>