<svg width="103" height="101" viewBox="0 0 103 101" fill="none" xmlns="http://www.w3.org/2000/svg">
<path d="M51.4323 0C44.6781 0 37.9901 1.33034 31.75 3.91505C25.51 6.49977 19.8401 10.2882 15.0642 15.0642C5.41875 24.7096 0 37.7916 0 51.4323C0 74.1654 14.7611 93.4525 35.1797 100.293C37.7513 100.705 38.5742 99.1101 38.5742 97.7214C38.5742 96.5385 38.5742 93.2982 38.5742 89.0294C24.3275 92.1153 21.293 82.1374 21.293 82.1374C18.9271 76.1713 15.584 74.5769 15.584 74.5769C10.9037 71.3881 15.944 71.4909 15.944 71.4909C21.0873 71.851 23.8132 76.7885 23.8132 76.7885C28.2878 84.6062 35.8483 82.2917 38.78 81.0574C39.2429 77.7143 40.5801 75.4512 42.0202 74.1654C30.6022 72.8796 18.6185 68.4564 18.6185 48.8607C18.6185 43.1517 20.5729 38.5742 23.916 34.9226C23.4017 33.6367 21.6016 28.2878 24.4304 21.3444C24.4304 21.3444 28.7507 19.9557 38.5742 26.5905C42.6374 25.459 47.0606 24.8932 51.4323 24.8932C55.8041 24.8932 60.2273 25.459 64.2904 26.5905C74.114 19.9557 78.4343 21.3444 78.4343 21.3444C81.2631 28.2878 79.463 33.6367 78.9486 34.9226C82.2917 38.5742 84.2462 43.1517 84.2462 48.8607C84.2462 68.5079 72.211 72.8282 60.7416 74.114C62.5932 75.7084 64.2904 78.8458 64.2904 83.629V97.7214C64.2904 99.1101 65.1133 100.756 67.7364 100.293C88.155 93.4011 102.865 74.1654 102.865 51.4323C102.865 44.6781 101.534 37.9901 98.9496 31.75C96.3649 25.51 92.5764 19.8401 87.8005 15.0642C83.0246 10.2882 77.3547 6.49977 71.1146 3.91505C64.8746 1.33034 58.1865 0 51.4323 0Z" fill="black"/>
</svg>
