<svg width="103" height="103" viewBox="0 0 103 103" fill="none" xmlns="http://www.w3.org/2000/svg">
<path d="M95.2455 0H7.59341C3.40168 0 0 3.32167 0 7.41197V95.4427C0 99.5387 3.40168 102.865 7.59341 102.865H95.2455C99.4401 102.865 102.865 99.5387 102.865 95.4427V7.41197C102.865 3.32167 99.4401 0 95.2455 0ZM30.5079 87.655H15.244V38.5671H30.5079V87.655ZM22.876 31.8552C17.9856 31.8552 14.0325 27.892 14.0325 23.006C14.0325 18.127 17.9856 14.1639 22.876 14.1639C27.7549 14.1639 31.718 18.127 31.718 23.006C31.718 27.892 27.7549 31.8552 22.876 31.8552ZM87.6493 87.655H72.4096V63.7847C72.4096 58.09 72.2981 50.768 64.479 50.768C56.5384 50.768 55.3283 56.9699 55.3283 63.3718V87.6564H40.0772V38.5671H54.714V45.2705H54.9226C56.9599 41.413 61.9374 37.3427 69.3608 37.3427C84.7991 37.3427 87.6507 47.5063 87.6507 60.7287V87.655H87.6493Z" fill="black"/>
</svg>
